<svg width="26" height="20" viewBox="0 0 26 20" fill="none" xmlns="http://www.w3.org/2000/svg">
<path d="M14.9381 0.606709C14.6818 0.84469 14.6818 1.23051 14.9381 1.46849L23.8041 9.70122C23.9819 9.86632 23.9819 10.134 23.8041 10.2991L14.9381 18.5319C14.6818 18.7699 14.6818 19.1557 14.9381 19.3937C15.1944 19.6316 15.6099 19.6316 15.8662 19.3937L24.7322 11.1609C25.4226 10.5199 25.4226 9.48051 24.7322 8.83945L15.8662 0.606709C15.6099 0.368727 15.1944 0.368727 14.9381 0.606709ZM15.1875 8.78143C14.4626 8.78143 13.875 9.32707 13.875 10.0002C13.875 10.6733 14.4626 11.2189 15.1875 11.2189C15.9124 11.2189 16.5 10.6733 16.5 10.0002C16.5 9.32707 15.9124 8.78143 15.1875 8.78143ZM2.0625 8.78143C1.33761 8.78143 0.75 9.32707 0.75 10.0002C0.75 10.6733 1.33761 11.2189 2.0625 11.2189C2.78739 11.2189 3.375 10.6733 3.375 10.0002C3.375 9.32707 2.78739 8.78143 2.0625 8.78143ZM10.8125 8.78143C10.0876 8.78143 9.5 9.32707 9.5 10.0002C9.5 10.6733 10.0876 11.2189 10.8125 11.2189C11.5374 11.2189 12.125 10.6733 12.125 10.0002C12.125 9.32707 11.5374 8.78143 10.8125 8.78143ZM6.4375 8.78143C5.71261 8.78143 5.125 9.32707 5.125 10.0002C5.125 10.6733 5.71261 11.2189 6.4375 11.2189C7.16239 11.2189 7.75 10.6733 7.75 10.0002C7.75 9.32707 7.16239 8.78143 6.4375 8.78143Z" fill="#FFB219"/>
</svg>
