<svg width="52" height="52" viewBox="0 0 52 52" fill="none" xmlns="http://www.w3.org/2000/svg">
<path d="M4.76723 21.147H9.62056V25.8703H4.76723V21.147ZM10.7256 21.147H15.6006V25.8703H10.7256V21.147ZM10.7256 15.0803H15.6006V19.8037H10.7256V15.0803ZM16.7056 21.147H21.5589V25.8703H16.7056V21.147ZM16.7056 15.0803H21.5589V19.8037H16.7056V15.0803ZM22.6639 21.147H27.5389V25.8703H22.6639V21.147ZM22.6639 15.0803H27.5389V19.8037H22.6639V15.0803ZM28.6439 21.147H33.4972V25.8703H28.6439V21.147ZM22.6639 9.01367H27.5389V13.737H22.6639V9.01367ZM11.5489 32.6953C12.3072 32.6953 12.9139 33.2803 12.9139 34.017C12.9139 34.732 12.3072 35.3387 11.5489 35.3387C10.8339 35.3387 10.2056 34.732 10.2056 34.017C10.2056 33.2803 10.8339 32.6953 11.5489 32.6953ZM49.1622 23.5953L49.8339 23.9637L49.4872 24.6353C48.1006 27.257 45.2189 28.0587 42.4022 27.9287C38.1772 38.1337 28.9689 42.987 17.8322 42.987C12.0689 42.987 6.78223 40.8853 3.77056 35.9237L3.72722 35.837L3.25056 34.9703C2.2868 32.7792 1.91331 30.3739 2.16722 27.9937L2.23222 27.2787H34.2339C35.3822 27.2787 36.5522 27.0837 37.6139 26.737L39.2606 26.0003C38.5889 25.1337 38.2206 24.0287 38.1339 22.9453C37.9822 21.472 38.2856 19.5003 39.3256 18.417L39.8456 17.8103L40.4522 18.287C41.9906 19.5003 43.2689 21.1687 43.5072 23.0753C45.3489 22.5553 47.5372 22.6637 49.1622 23.5953ZM11.5706 36.5087C13.0006 36.5087 14.0839 35.382 14.0839 34.017C14.0839 32.6303 13.0006 31.5037 11.5489 31.5037C10.1406 31.5037 8.99223 32.6303 8.99223 34.017C8.99223 35.4037 10.1406 36.5087 11.5706 36.5087Z" fill="#1E9CEF"/>
</svg>
