<svg width="28" height="28" viewBox="0 0 28 28" fill="none" xmlns="http://www.w3.org/2000/svg">
<path d="M14 25C18.1421 25 21.5 21.6421 21.5 17.5C21.5 16.6345 21.2697 15.8032 21 15.0296C19.3333 16.6765 18.0667 17.5 17.2 17.5C21.1954 10.5 19 7.5 13 3.5C13.5 8.49951 10.204 10.7738 8.86179 12.0366C7.40786 13.4045 6.5 15.3462 6.5 17.5C6.5 21.6421 9.85786 25 14 25ZM14.7094 7.23498C17.9511 9.98528 17.9666 12.1223 15.463 16.5086C14.702 17.8419 15.6648 19.5 17.2 19.5C17.8884 19.5 18.5841 19.2992 19.3189 18.9051C18.6979 21.262 16.5519 23 14 23C10.9624 23 8.5 20.5376 8.5 17.5C8.5 15.9608 9.13279 14.5276 10.2323 13.4932C10.3583 13.3747 10.9975 12.8081 11.0248 12.7836C11.4486 12.4021 11.7978 12.0663 12.1429 11.6968C13.3733 10.3793 14.2571 8.91631 14.7094 7.23498Z" fill="#4b1113"/>
</svg>
