<svg width="28" height="28" viewBox="0 0 28 28" fill="none" xmlns="http://www.w3.org/2000/svg">
<path d="M4.6667 23.3334V16.3334C4.6667 11.1787 8.84537 7.00004 14 7.00004C19.1547 7.00004 23.3334 11.1787 23.3334 16.3334V23.3334H24.5V25.6667H3.50003V23.3334H4.6667ZM7.00003 23.3334H21V16.3334C21 12.4674 17.866 9.33337 14 9.33337C10.134 9.33337 7.00003 12.4674 7.00003 16.3334V23.3334ZM12.8334 2.33337H15.1667V5.83337H12.8334V2.33337ZM23.0746 5.60892L24.7245 7.25884L22.2496 9.73372L20.5997 8.08379L23.0746 5.60892ZM3.27557 7.25884L4.92549 5.60892L7.40036 8.08379L5.75045 9.73372L3.27557 7.25884ZM8.1667 16.3334C8.1667 13.1117 10.7784 10.5 14 10.5V12.8334C12.0671 12.8334 10.5 14.4003 10.5 16.3334H8.1667Z" fill="white"/>
</svg>
