<svg width="30" height="30" viewBox="0 0 30 30" fill="none" xmlns="http://www.w3.org/2000/svg">
<path d="M15.0015 0C6.71397 0 0.00146484 6.7125 0.00146484 15C0.00146484 21.6375 4.29522 27.2437 10.2577 29.2312C11.0077 29.3625 11.289 28.9125 11.289 28.5188C11.289 28.1625 11.2702 26.9812 11.2702 25.725C7.50147 26.4187 6.52646 24.8063 6.22647 23.9625C6.05771 23.5312 5.32646 22.2 4.68896 21.8438C4.16396 21.5625 3.41397 20.8687 4.67022 20.85C5.85147 20.8312 6.69522 21.9375 6.97647 22.3875C8.32646 24.6562 10.4827 24.0187 11.3452 23.625C11.4765 22.65 11.8702 21.9938 12.3015 21.6188C8.96396 21.2438 5.47647 19.95 5.47647 14.2125C5.47647 12.5813 6.05771 11.2313 7.01397 10.1813C6.86397 9.80625 6.33896 8.26875 7.16397 6.20625C7.16397 6.20625 8.42021 5.8125 11.289 7.74375C12.489 7.40625 13.764 7.2375 15.039 7.2375C16.314 7.2375 17.589 7.40625 18.789 7.74375C21.6577 5.79375 22.914 6.20625 22.914 6.20625C23.739 8.26875 23.214 9.80625 23.064 10.1813C24.0202 11.2313 24.6015 12.5625 24.6015 14.2125C24.6015 19.9688 21.0952 21.2438 17.7577 21.6188C18.3015 22.0875 18.7702 22.9875 18.7702 24.3938C18.7702 26.4 18.7515 28.0125 18.7515 28.5188C18.7515 28.9125 19.0327 29.3812 19.7827 29.2312C25.8885 27.1699 29.9998 21.4445 30.0015 15C30.0015 6.7125 23.289 0 15.0015 0Z" />
</svg>
