<svg width="20" height="20" viewBox="0 0 20 20" fill="none" xmlns="http://www.w3.org/2000/svg">
<path d="M7.64174 5.83293C7.48653 5.98906 7.39941 6.20027 7.39941 6.42043C7.39941 6.64058 7.48653 6.85179 7.64174 7.00793L10.5917 9.9996L7.64174 12.9496C7.48653 13.1057 7.39941 13.3169 7.39941 13.5371C7.39941 13.7573 7.48653 13.9685 7.64174 14.1246C7.71921 14.2027 7.81138 14.2647 7.91293 14.307C8.01448 14.3493 8.1234 14.3711 8.23341 14.3711C8.34342 14.3711 8.45234 14.3493 8.55389 14.307C8.65544 14.2647 8.74761 14.2027 8.82507 14.1246L12.3584 10.5913C12.4365 10.5138 12.4985 10.4216 12.5408 10.3201C12.5831 10.2185 12.6049 10.1096 12.6049 9.9996C12.6049 9.88959 12.5831 9.78066 12.5408 9.67911C12.4985 9.57756 12.4365 9.4854 12.3584 9.40793L8.82507 5.83293C8.74761 5.75482 8.65544 5.69283 8.55389 5.65052C8.45234 5.60821 8.34342 5.58643 8.23341 5.58643C8.1234 5.58643 8.01448 5.60821 7.91293 5.65052C7.81138 5.69283 7.71921 5.75482 7.64174 5.83293Z" />
</svg>
