<svg width="28" height="30" viewBox="0 0 28 30" fill="none" xmlns="http://www.w3.org/2000/svg">
<path d="M22.4794 4.28613H5.19583C4.35136 4.28613 3.67578 5.00997 3.67578 5.85444V24.4328C3.67578 25.2773 4.35136 26.0012 5.19583 26.0012H22.4794C23.3239 26.0012 23.9994 25.2773 23.9994 24.4328V5.85444C23.9994 5.00997 23.3239 4.28613 22.4794 4.28613Z" />
<path d="M6.23256 12.1563H9.31395V22.9122H6.23256V12.1563ZM7.80233 6.84082C8.7907 6.84082 9.60465 7.71631 9.60465 8.7794C9.60465 9.84249 8.7907 10.718 7.80233 10.718C6.81396 10.718 6 9.84249 6 8.7794C6 7.71631 6.81396 6.84082 7.80233 6.84082ZM11.2907 12.1563H14.2558V13.5946H14.314C14.7209 12.7191 15.7674 11.8436 17.2791 11.8436C20.4186 11.8436 21 14.0949 21 16.9714V22.8497H17.9186V17.5968C17.9186 16.3461 17.9186 14.7202 16.2907 14.7202C14.6628 14.7202 14.4302 16.096 14.4302 17.4717V22.7872H11.3488V12.1563H11.2907Z" fill="black"/>
</svg>
