<svg xmlns="http://www.w3.org/2000/svg" xmlns:xlink="http://www.w3.org/1999/xlink" fill="none" version="1.1" width="192" height="192" viewBox="0 0 192 192"><defs><clipPath id="master_svg0_9532_26014"><rect x="0" y="0" width="192" height="192" rx="0"/></clipPath><linearGradient x1="0.33318981528282166" y1="0.24062524735927582" x2="0.9564955234527588" y2="1.1402971744537354" id="master_svg1_9279_28380"><stop offset="0%" stop-color="#FF5900" stop-opacity="1"/><stop offset="43.230634927749634%" stop-color="#FD9A2F" stop-opacity="1"/><stop offset="100.00009536743164%" stop-color="#FFAA00" stop-opacity="1"/></linearGradient><linearGradient x1="0.21849365532398224" y1="0.08506011962890625" x2="0.5" y2="1" id="master_svg2_9279_28404"><stop offset="0%" stop-color="#FE7C19" stop-opacity="1"/><stop offset="99.99997019767761%" stop-color="#FEA315" stop-opacity="1"/></linearGradient><linearGradient x1="0.5" y1="0" x2="0.5" y2="1" id="master_svg3_8136_027292"><stop offset="0%" stop-color="#FF5900" stop-opacity="1"/><stop offset="100%" stop-color="#FEA015" stop-opacity="1"/></linearGradient><linearGradient x1="0.21849365532398224" y1="0.08506011962890625" x2="0.5" y2="1" id="master_svg4_4005_205230"><stop offset="0%" stop-color="#FE7C19" stop-opacity="1"/><stop offset="99.99997019767761%" stop-color="#FEA315" stop-opacity="1"/></linearGradient></defs><g style="mix-blend-mode:passthrough" clip-path="url(#master_svg0_9532_26014)"><g style="mix-blend-mode:passthrough"><g style="mix-blend-mode:passthrough"><path d="M52.7335895857811,90.86001039962768Q54.1538895857811,95.7709103996277,56.9453895857811,100.11731039962768Q57.261989585781095,100.61031039962768,57.6681895857811,101.03251039962768Q57.8723895857811,101.24461039962769,58.0963895857811,101.43581039962768Q58.3204895857811,101.62691039962769,58.5621895857811,101.79511039962769Q58.8038895857811,101.96331039962769,59.060989585781094,102.10691039962768Q59.318089585781095,102.25061039962767,59.5880895857811,102.36841039962769Q59.8579895857811,102.48611039962768,60.138289585781095,102.57681039962767Q60.4185895857811,102.66751039962769,60.7064895857811,102.73031039962768Q60.9942895857811,102.7931103996277,61.2869895857811,102.82731039962769Q61.5796895857811,102.8616103996277,61.874389585781095,102.86701039962769Q62.0216895857811,102.86971039962768,62.168889585781095,102.8651103996277Q62.3160895857811,102.86061039962769,62.462989585781095,102.8488103996277Q62.609789585781094,102.83711039962768,62.7558895857811,102.81811039962768Q62.901989585781095,102.79921039962768,63.047089585781094,102.77311039962768Q63.1920895857811,102.74701039962768,63.3355895857811,102.71391039962768Q63.4791895857811,102.68071039962769,63.620989585781096,102.64051039962769Q63.7627895857811,102.60031039962769,63.9024895857811,102.55331039962769Q64.0420895857811,102.50621039962769,64.1792895857811,102.45231039962769Q64.3164895857811,102.3985103996277,64.4508895857811,102.33791039962769Q64.5852895857811,102.27741039962768,64.7165895857811,102.21041039962768Q64.8478895857811,102.1433103996277,64.9756895857811,102.06991039962769Q65.1035895857811,101.99651039962768,65.22768958578109,101.91691039962768Q65.35178958578109,101.83741039962769,65.4717895857811,101.75181039962769Q65.5918895857811,101.66631039962769,65.70758958578111,101.57491039962768Q65.8232895857811,101.48361039962768,65.9344895857811,101.38671039962769Q66.0455895857811,101.28981039962768,66.1517895857811,101.18751039962768Q66.25808958578111,101.08531039962769,66.3591895857811,100.97801039962769Q66.4602895857811,100.87071039962768,66.5559895857811,100.75861039962768Q66.6516895857811,100.64651039962769,66.7417895857811,100.52981039962768Q66.83198958578109,100.41311039962768,66.9161895857811,100.29211039962769Q67.0004895857811,100.17121039962768,67.0787895857811,100.04631039962769Q67.1570895857811,99.92131039962769,67.2290895857811,99.79271039962768Q67.30118958578109,99.66411039962769,67.3667895857811,99.53221039962769Q67.4324895857811,99.4002103996277,67.4915895857811,99.26521039962768Q67.5506895857811,99.13011039962768,67.6030895857811,98.99241039962769Q67.6554895857811,98.85461039962769,67.70108958578109,98.71451039962768Q67.7466895857811,98.57441039962768,67.7853895857811,98.43221039962768Q67.8240895857811,98.29001039962768,67.8556895857811,98.14611039962769Q67.88738958578111,98.00211039962768,67.9118895857811,97.85691039962768Q67.93648958578109,97.71161039962769,67.9538895857811,97.56531039962769Q67.97128958578111,97.4190103996277,67.9814895857811,97.27211039962768Q67.9916895857811,97.12511039962769,67.99468958578109,96.97781039962769Q68.0036895857811,96.53421039962768,67.9472895857811,96.09421039962768Q67.8908895857811,95.65421039962769,67.77038958578109,95.22741039962769Q67.6498895857811,94.80061039962769,67.4677895857811,94.39621039962768Q67.28578958578109,93.99191039962768,67.0461895857811,93.61891039962768L67.04608958578109,93.61871039962769Q67.0423895857811,93.61291039962768,67.0385895857811,93.60711039962769Q63.2282895857811,87.6673103996277,63.369689585781096,80.68301039962768Q63.4677895857811,75.83211039962768,65.51698958578109,71.4395103996277Q67.5113895857811,67.16461039962769,71.07428958578109,63.88761039962769Q74.6663895857811,60.583710399627684,79.28488958578109,58.815510399627684Q84.0882895857811,56.976510399627685,89.32308958578109,57.07231039962768Q93.9537895857811,57.15701039962769,98.2125895857811,58.75291039962769Q102.31068958578109,60.28871039962769,105.64028958578109,63.05731039962768Q108.9250895857811,65.78851039962768,111.0616895857811,69.38491039962769Q113.2198895857811,73.01741039962769,113.9512895857811,77.1142103996277Q113.95278958578109,77.12251039962769,113.9542895857811,77.13091039962768Q114.0317895857811,77.56671039962768,114.1723895857811,77.98631039962768Q114.3130895857811,78.40581039962768,114.5137895857811,78.80011039962768Q114.7144895857811,79.19441039962769,114.9710895857811,79.55481039962768Q115.2275895857811,79.91521039962768,115.5342895857811,80.23401039962769Q115.7384895857811,80.44621039962769,115.9624895857811,80.6373103996277Q116.1864895857811,80.82841039962769,116.4281895857811,80.99661039962768Q116.66988958578109,81.16481039962768,116.9269895857811,81.30851039962769Q117.1840895857811,81.45211039962768,117.45408958578109,81.56991039962769Q117.7240895857811,81.68761039962769,118.0043895857811,81.77831039962769Q118.28458958578109,81.86901039962768,118.5724895857811,81.9318103996277Q118.86038958578109,81.99461039962769,119.1530895857811,82.02881039962769Q119.4457895857811,82.06311039962767,119.7403895857811,82.06851039962768Q119.8876895857811,82.07121039962769,120.0348895857811,82.06661039962768Q120.1821895857811,82.06211039962768,120.3289895857811,82.05041039962768Q120.4758895857811,82.03861039962769,120.6219895857811,82.01971039962768Q120.7680895857811,82.00071039962768,120.9130895857811,81.9746103996277Q121.0580895857811,81.94851039962768,121.2016895857811,81.91541039962769Q121.3452895857811,81.8822103996277,121.48708958578109,81.84201039962768Q121.62878958578109,81.80191039962769,121.7684895857811,81.75481039962769Q121.9081895857811,81.70771039962769,122.0453895857811,81.65381039962769Q122.1824895857811,81.60001039962768,122.3169895857811,81.53951039962769Q122.4512895857811,81.4789103996277,122.5825895857811,81.41191039962769Q122.7138895857811,81.34481039962768,122.8417895857811,81.27141039962768Q122.9695895857811,81.19801039962769,123.09368958578109,81.1185103996277Q123.21778958578109,81.0389103996277,123.3378895857811,80.95331039962768Q123.4578895857811,80.86781039962769,123.5736895857811,80.77641039962768Q123.6893895857811,80.68511039962769,123.8004895857811,80.58821039962768Q123.9115895857811,80.49131039962768,124.0180895857811,80.38911039962768Q124.12408958578109,80.28681039962768,124.22508958578109,80.17951039962769Q124.32608958578109,80.07221039962769,124.4220895857811,79.9601103996277Q124.5180895857811,79.84801039962768,124.6080895857811,79.73131039962769Q124.69808958578109,79.61461039962768,124.7820895857811,79.49371039962769Q124.8660895857811,79.37271039962769,124.94508958578109,79.2478103996277Q125.0230895857811,79.12291039962768,125.0950895857811,78.9943103996277Q125.1670895857811,78.86561039962768,125.2330895857811,78.73371039962768Q125.2980895857811,78.60171039962768,125.3580895857811,78.46671039962769Q125.4170895857811,78.3317103996277,125.46908958578109,78.19391039962768Q125.5210895857811,78.05621039962769,125.56708958578109,77.91601039962768Q125.6130895857811,77.77591039962769,125.6510895857811,77.63371039962769Q125.6900895857811,77.49151039962769,125.72208958578109,77.34761039962768Q125.7530895857811,77.20371039962768,125.7780895857811,77.05841039962769Q125.8020895857811,76.91311039962768,125.82008958578109,76.76681039962769Q125.8370895857811,76.62051039962768,125.84708958578109,76.47361039962769Q125.8580895857811,76.32661039962768,125.8610895857811,76.17941039962768Q125.8730895857811,75.58921039962769,125.7690895857811,75.00831039962769Q124.6580895857811,68.75501039962768,121.3816895857811,63.241110399627686Q118.1924895857811,57.87321039962769,113.3233895857811,53.824510399627684Q108.4371895857811,49.761630399627684,102.4427895857811,47.51529039962769Q96.2561895857811,45.19690039962769,89.5657895857811,45.07448039962769Q81.9974895857811,44.93600039962769,75.0130895857811,47.610040399627685Q68.2458895857811,50.20091039962769,62.9596895857811,55.062810399627686Q57.6443895857811,59.95161039962768,54.6436895857811,66.38381039962769Q53.017589585781096,69.8693103996277,52.197789585781095,73.54301039962769Q49.0516895857811,74.49931039962769,46.082889585781096,76.00051039962769Q40.2382895857811,78.95591039962768,35.7800895857811,83.66371039962769Q31.2697495857811,88.42661039962769,28.756039585781096,94.37431039962769Q26.143499585781097,100.55591039962769,26.0074795857811,107.27801039962769Q25.867969585781097,114.17211039962768,28.350769585781098,120.58391039962768Q30.738779585781096,126.75081039962768,35.255389585781096,131.72311039962767Q39.7261895857811,136.64501039962767,45.6871895857811,139.74121039962768Q51.7915895857811,142.9119103996277,58.6813895857811,143.75671039962768L59.044989585781096,143.8007103996277L92.1919895857811,143.7977103996277L114.7355895857811,143.6297103996277L114.6693895857811,131.63051039962767L92.12578958578109,131.79851039962767L59.8181895857811,131.8009103996277Q55.2680895857811,131.18491039962768,51.23498958578109,129.0900103996277Q47.1755895857811,126.98151039962768,44.1452895857811,123.64541039962768Q41.1260895857811,120.32171039962769,39.5424895857811,116.23211039962769Q37.9135895857811,112.02561039962768,38.0052895857811,107.49761039962769Q38.094589585781094,103.08231039962769,39.8082895857811,99.02751039962769Q41.4739895857811,95.08641039962768,44.4859895857811,91.90571039962768Q47.5047895857811,88.7178103996277,51.4816895857811,86.70691039962769Q51.6299895857811,86.63191039962769,51.7787895857811,86.55891039962768Q52.11768958578109,88.73011039962768,52.7335895857811,90.86001039962768Z" fill-rule="evenodd" fill="url(#master_svg1_9279_28380)" fill-opacity="1"/></g><g style="mix-blend-mode:passthrough"><ellipse cx="128.70981979370117" cy="108.25894165039062" rx="33.82038497924805" ry="32.74127960205078" stroke="url(#master_svg2_9279_28404)" fill-opacity="0" fill="none" stroke-width="12"/></g><g style="mix-blend-mode:passthrough" transform="matrix(0.8983665704727173,-0.4392465353012085,0.4589426815509796,0.8884658813476562,-12.919371354582495,61.97494850630392)"><path d="M163.77214985351563,63.65516061645508Q163.31524985351564,64.09560061645507,162.83714985351563,64.51376061645507Q162.35904985351561,64.93191061645507,161.86084985351562,65.32679061645507Q161.36274985351562,65.72168061645507,160.84574985351563,66.09237061645507Q160.32874985351563,66.46310061645508,159.79414985351562,66.80870061645508Q159.25954985351564,67.15430061645507,158.70854985351562,67.47410061645508Q158.15744985351563,67.79380061645507,157.59134985351562,68.08690061645508Q157.02524985351562,68.38000061645508,156.44534985351564,68.64580061645508Q155.86554985351563,68.91170061645508,155.27324985351564,69.14950061645507Q154.6809498535156,69.38740061645508,154.07764985351562,69.59680061645508Q153.47434985351563,69.80610061645508,152.86144985351564,69.98650061645507Q152.2485498535156,70.16690061645508,151.62744985351563,70.31780061645507Q151.00644985351562,70.46880061645508,150.37864985351564,70.59000061645509Q149.75094985351564,70.71120061645507,149.11794985351563,70.80240061645507Q148.48494985351562,70.89350061645507,147.84814985351562,70.95440061645508Q147.21144985351563,71.01530061645508,146.57244985351562,71.04580061645508Q145.93344985351564,71.07630061645509,145.29374985351564,71.07630061645509Q144.65394985351563,71.07630061645509,144.01494985351562,71.04580061645508Q143.37594985351564,71.01530061645508,142.7391498535156,70.95440061645508Q142.10234985351562,70.89350061645507,141.46934985351564,70.80230061645508Q140.83634985351563,70.71120061645507,140.20854985351562,70.59000061645509Q139.5807498535156,70.46880061645508,138.95964985351563,70.31780061645507Q138.33854985351562,70.16680061645508,137.72564985351562,69.98640061645509Q137.11274985351562,69.80600061645508,136.50939985351562,69.59660061645508Q135.90606985351562,69.38720061645508,135.31375985351562,69.14930061645508Q134.72145985351563,68.91140061645508,134.1415498535156,68.64560061645508Q133.56164985351563,68.37980061645507,132.99551985351562,68.08660061645507Q132.42938985351563,67.79350061645508,131.87834985351563,67.47370061645508Q131.32730985351563,67.15390061645508,130.79266985351563,66.80830061645509Q130.25801985351563,66.46260061645508,129.74101985351564,66.09188061645509Q129.2240198535156,65.72116061645508,128.72587985351564,65.32624061645508Q128.22773985351563,64.93132061645508,127.74962185351562,64.51312061645508Q127.27150785351563,64.09493061645507,126.81454362751562,63.65445061645508Q127.27150185351563,63.21401061645508,127.74960785351563,62.79585061645508Q128.22770985351562,62.37770061645508,128.72583985351562,61.982810616455076Q129.22397985351563,61.587930616455075,129.74095985351562,61.21724061645508Q130.2579498535156,60.846550616455076,130.79257985351563,60.500920616455076Q131.32720985351563,60.15530061645508,131.87821985351562,59.83555061645508Q132.42923985351564,59.51581061645508,132.99534985351562,59.222690616455075Q133.56146985351563,58.92957061645508,134.14133985351563,58.66376061645508Q134.72121985351563,58.39796061645508,135.31350985351563,58.16009061645508Q135.9057898535156,57.92223061645508,136.50908985351563,57.712860616455075Q137.11234985351564,57.503490616455075,137.72524985351563,57.323110616455075Q138.33814985351563,57.14272961645508,138.95924985351562,56.99176161645508Q139.58034985351563,56.84079361645508,140.20804985351563,56.71959161645508Q140.83584985351564,56.59838961645508,141.46884985351562,56.507238616455076Q142.10184985351563,56.41608761645508,142.73854985351562,56.35520061645508Q143.37524985351564,56.29431451645508,144.01424985351562,56.26383551645508Q144.65324985351563,56.23335649845508,145.29304985351564,56.23335649845508Q145.93274985351562,56.23335649945508,146.57174985351563,56.263838616455075Q147.21084985351564,56.29432061645508,147.84754985351563,56.35521361645508Q148.48434985351562,56.41610561645508,149.11734985351563,56.50726561645508Q149.75044985351562,56.59842661645508,150.37814985351562,56.719639616455076Q151.00594985351563,56.84085361645508,151.62704985351562,56.991836616455075Q152.24814985351563,57.14281961645508,152.86104985351562,57.323220616455075Q153.47404985351562,57.50361061645508,154.0773498535156,57.713000616455076Q154.68064985351563,57.922390616455075,155.27294985351563,58.160280616455076Q155.86524985351562,58.398170616455076,156.44514985351563,58.66400061645508Q157.0250498535156,58.92983061645508,157.59124985351562,59.222980616455075Q158.15734985351563,59.51613061645508,158.7083498535156,59.83591061645508Q159.25944985351563,60.15568061645508,159.79404985351562,60.50134061645508Q160.32874985351563,60.84700061645508,160.84574985351563,61.217720616455075Q161.36274985351562,61.58845061645508,161.86084985351562,61.983370616455076Q162.35904985351561,62.378290616455075,162.83714985351563,62.79648061645508Q163.31524985351564,63.21468061645508,163.77214985351563,63.65516061645508Z" fill-rule="evenodd" fill="url(#master_svg3_8136_027292)" fill-opacity="1"/></g></g><g style="mix-blend-mode:passthrough" transform="matrix(0.9237160086631775,-0.38307783007621765,0.38454335927963257,0.9231069087982178,-32.52604842185974,51.51535555720329)"><path d="M113.757574,127.7419Q110.06187,123.2984,108.73262,118.2621Q107.14014,112.22847,108.99201,105.64592L118.61831,108.35409Q117.50473,112.31238,118.40152,115.71012999999999Q119.16582,118.6059,121.44595,121.3474L113.757574,127.7419ZM122.60176,124.5447Q122.60176,124.6674,122.59574,124.78999999999999Q122.58971,124.9126,122.57768,125.0348Q122.56565,125.15690000000001,122.54764,125.2783Q122.52963,125.3997,122.50569,125.5201Q122.48174,125.6405,122.45192,125.7596Q122.42209,125.8786,122.38646,125.9961Q122.35083,126.1135,122.30948000000001,126.2291Q122.26813,126.3447,122.22116,126.4581Q122.17418,126.5715,122.12171000000001,126.6824Q122.06923,126.79339999999999,122.01137,126.9016Q121.9535,127.0099,121.8904,127.1152Q121.8273,127.2205,121.75910999999999,127.3225Q121.69091,127.4246,121.6178,127.5232Q121.54468,127.62180000000001,121.46681,127.7166Q121.38894,127.8115,121.30652,127.9025Q121.22409,127.99340000000001,121.13729000000001,128.0802Q121.0505,128.167,120.95956,128.2494Q120.86861,128.3319,120.77373,128.4097Q120.67884,128.4876,120.58026,128.5607Q120.48167,128.6338,120.37961,128.702Q120.27755,128.7702,120.17227,128.8333Q120.06699,128.8964,119.95874,128.9543Q119.85049,129.0121,119.73954,129.06459999999998Q119.62858,129.1171,119.51518,129.1641Q119.40178,129.211,119.28621,129.2524Q119.17064,129.2937,119.05318,129.3294Q118.93573,129.365,118.81666,129.3948Q118.6976,129.4246,118.57721,129.4486Q118.45683,129.4725,118.33541,129.4905Q118.214,129.5086,118.09185,129.5206Q117.96969,129.5326,117.8471,129.5386Q117.7245,129.5447,117.60176,129.5447Q117.47902,129.5447,117.35642,129.5386Q117.23383,129.5326,117.11167,129.5206Q116.98952,129.5086,116.86811,129.4905Q116.74669,129.4725,116.62631,129.4486Q116.50592,129.4246,116.38686,129.3948Q116.26779,129.365,116.15034,129.3294Q116.03288,129.2937,115.91731,129.2524Q115.80174,129.211,115.68834,129.1641Q115.57494,129.1171,115.46398,129.06459999999998Q115.35303,129.0121,115.24478,128.9543Q115.13653,128.8964,115.03125,128.8333Q114.92597,128.7702,114.82391,128.702Q114.72185,128.6338,114.62326,128.5607Q114.52468,128.4876,114.42979,128.4097Q114.33491,128.3319,114.24397,128.2494Q114.15302,128.167,114.06623,128.0802Q113.979433,127.99340000000001,113.897004,127.9025Q113.814575,127.8115,113.736708,127.7166Q113.65884,127.62180000000001,113.585722,127.5232Q113.512604,127.4246,113.444412,127.3225Q113.376219,127.2205,113.313117,127.1152Q113.250014,127.0099,113.192154,126.9016Q113.134293,126.79339999999999,113.0818134,126.6824Q113.029334,126.5715,112.9823622,126.4581Q112.9353905,126.3447,112.89404,126.2291Q112.852689,126.1135,112.817058,125.9961Q112.781428,125.8786,112.751604,125.7596Q112.72178,125.6405,112.697834,125.5201Q112.673888,125.3997,112.655877,125.2783Q112.637867,125.15690000000001,112.625836,125.0348Q112.613805,124.9126,112.607783,124.78999999999999Q112.60176,124.6674,112.60176,124.5447Q112.60176,124.4219,112.607783,124.2993Q112.613805,124.1767,112.625836,124.0546Q112.637867,123.9324,112.655877,123.811Q112.673888,123.6896,112.697834,123.5692Q112.72178,123.4488,112.751604,123.3298Q112.781428,123.2107,112.817058,123.0932Q112.852689,122.97579999999999,112.89404,122.8602Q112.9353905,122.7446,112.9823622,122.6312Q113.029334,122.5178,113.0818134,122.40690000000001Q113.134293,122.2959,113.192154,122.1877Q113.250014,122.07939999999999,113.313117,121.9742Q113.376219,121.8689,113.444412,121.7668Q113.512604,121.6648,113.585722,121.5662Q113.65884,121.4676,113.736708,121.3727Q113.814575,121.2778,113.897004,121.1869Q113.979433,121.0959,114.06623,121.0091Q114.15302,120.9223,114.24396,120.8399Q114.33491,120.7575,114.42979,120.6796Q114.52468,120.6017,114.62326,120.5286Q114.72185,120.4555,114.82391,120.3873Q114.92597,120.3191,115.03125,120.256Q115.13653,120.1929,115.24478,120.1351Q115.35303,120.0772,115.46398,120.0247Q115.57494,119.9722,115.68834,119.9253Q115.80174,119.8783,115.91731,119.8369Q116.03288,119.79560000000001,116.15034,119.76Q116.26779,119.7243,116.38686,119.6945Q116.50592,119.6647,116.62631,119.6407Q116.74669,119.6168,116.86811,119.5988Q116.98952,119.5808,117.11167,119.5687Q117.23383,119.5567,117.35642,119.5507Q117.47902,119.5447,117.60176,119.5447Q117.7245,119.5447,117.8471,119.5507Q117.96969,119.5567,118.09185,119.5687Q118.214,119.5808,118.33541,119.5988Q118.45683,119.6168,118.57721,119.6407Q118.6976,119.6647,118.81666,119.6945Q118.93573,119.7243,119.05318,119.76Q119.17064,119.79560000000001,119.28621,119.8369Q119.40178,119.8783,119.51518,119.9253Q119.62858,119.9722,119.73954,120.0247Q119.85049,120.0772,119.95874,120.1351Q120.06699,120.1929,120.17227,120.256Q120.27755,120.3191,120.37961,120.3873Q120.48167,120.4555,120.58026,120.5286Q120.67884,120.6017,120.77373,120.6796Q120.86861,120.7575,120.95956,120.8399Q121.0505,120.9223,121.13729000000001,121.0091Q121.22409,121.0959,121.30652,121.1869Q121.38894,121.2778,121.46681,121.3727Q121.54468,121.4676,121.6178,121.5662Q121.69091,121.6648,121.75910999999999,121.7668Q121.8273,121.8689,121.8904,121.9742Q121.9535,122.07939999999999,122.01137,122.1877Q122.06923,122.2959,122.12171000000001,122.40690000000001Q122.17418,122.5178,122.22116,122.6312Q122.26813,122.7446,122.30948000000001,122.8602Q122.35083,122.97579999999999,122.38646,123.0932Q122.42209,123.2107,122.45192,123.3298Q122.48174,123.4488,122.50569,123.5692Q122.52963,123.6896,122.54764,123.811Q122.56565,123.9324,122.57768,124.0546Q122.58971,124.1767,122.59574,124.2993Q122.60176,124.4219,122.60176,124.5447ZM118.80516,107Q118.80516,107.122743,118.79914,107.245338Q118.79311,107.367934,118.78108,107.490086Q118.76905,107.612238,118.75104,107.733652Q118.73303,107.855067,118.70909,107.975451Q118.68514,108.09584,118.65532,108.2149Q118.62549,108.33397,118.58986,108.45142Q118.55423,108.56888000000001,118.51288,108.68445Q118.47153,108.80002,118.42456,108.91342Q118.37758,109.02682,118.32511,109.13778Q118.27263,109.24873,118.21477,109.35698Q118.15690000000001,109.46523,118.0938,109.57051Q118.0307,109.67579,117.96251,109.77785Q117.89431,109.87991,117.8212,109.9785Q117.74808,110.07708,117.67021,110.17197Q117.59234000000001,110.26685,117.50991,110.35779Q117.42749,110.44874,117.34069,110.53553Q117.2539,110.62233,117.16295,110.70476Q117.07201,110.78718,116.97713,110.86505Q116.88224,110.94292,116.78366,111.01604Q116.68507,111.08915999999999,116.58301,111.15735Q116.48095,111.22554,116.37567,111.28864Q116.27039,111.35175,116.16214,111.40961Q116.05389,111.46747,115.94293,111.51995Q115.83198,111.57243,115.71858,111.6194Q115.60518,111.66637,115.48961,111.70772Q115.37404,111.74907,115.25658,111.7847Q115.13912,111.82033,115.02006,111.85016Q114.901,111.87998,114.78061,111.90393Q114.66023,111.92787,114.53881,111.94588Q114.4174,111.96389,114.29525,111.97592Q114.17309,111.98795,114.0505,111.99398Q113.927903,112,113.80516,112Q113.682416,112,113.559821,111.99398Q113.437226,111.98795,113.315074,111.97592Q113.192922,111.96389,113.0715073,111.94588Q112.9500927,111.92787,112.829708,111.90393Q112.709323,111.87998,112.590259,111.85016Q112.471194,111.82033,112.353736,111.7847Q112.236278,111.74907,112.12071,111.70772Q112.005142,111.66637,111.89174,111.6194Q111.77834,111.57243,111.66738,111.51995Q111.55643,111.46747,111.44818,111.40961Q111.33993,111.35175,111.23465,111.28864Q111.12937,111.22554,111.02731,111.15735Q110.92525,111.08915999999999,110.82666,111.01604Q110.72807,110.94292,110.63319,110.86505Q110.53831,110.78718,110.44736,110.70476Q110.35642,110.62233,110.26963,110.53553Q110.18283,110.44874,110.1004,110.35779Q110.01798,110.26685,109.94011,110.17197Q109.86224,110.07708,109.78912,109.9785Q109.716,109.87991,109.64781,109.77785Q109.57962,109.67579,109.51652,109.57051Q109.45341,109.46523,109.39555,109.35698Q109.33769,109.24873,109.28521,109.13778Q109.23273,109.02682,109.18576,108.91342Q109.13879,108.80002,109.09744,108.68445Q109.05609,108.56888000000001,109.02046,108.45142Q108.98483,108.33397,108.955,108.2149Q108.92518,108.09584,108.90123,107.975451Q108.87729,107.855067,108.85928,107.733652Q108.84127,107.612238,108.82924,107.490086Q108.8172,107.367934,108.81118000000001,107.245338Q108.80516,107.122743,108.80516,107Q108.80516,106.877257,108.81118000000001,106.754662Q108.8172,106.632066,108.82924,106.509914Q108.84127,106.387762,108.85928,106.266348Q108.87729,106.144933,108.90123,106.024549Q108.92518,105.90416,108.955,105.7851Q108.98483,105.66603,109.02046,105.54858Q109.05609,105.43111999999999,109.09744,105.31555Q109.13879,105.19998,109.18576,105.08658Q109.23273,104.97318,109.28521,104.86222Q109.33769,104.75127,109.39555,104.64302Q109.45341,104.53477,109.51652,104.42949Q109.57962,104.32421,109.64781,104.22215Q109.716,104.12009,109.78912,104.0215Q109.86224,103.92292,109.94011,103.82803Q110.01797,103.73315,110.1004,103.64221Q110.18283,103.55126,110.26963,103.46447Q110.35642,103.37767,110.44736,103.29524Q110.53831,103.21282,110.63319,103.13495Q110.72807,103.05708,110.82666,102.98396Q110.92525,102.91084000000001,111.02731,102.84265Q111.12937,102.77446,111.23465,102.71136Q111.33993,102.64825,111.44818,102.59039Q111.55643,102.53253,111.66738,102.48005Q111.77834,102.42757,111.89174,102.3806Q112.005142,102.33363,112.12071,102.29228Q112.236278,102.25093,112.353736,102.2153Q112.471194,102.17967,112.590259,102.14984Q112.709323,102.12002,112.829708,102.09607Q112.9500927,102.07213,113.0715073,102.05412Q113.192922,102.03611,113.315074,102.02408Q113.437226,102.01205,113.559821,102.00602Q113.682416,102,113.80516,102Q113.927903,102,114.0505,102.00602Q114.17309,102.01205,114.29525,102.02408Q114.4174,102.03611,114.53881,102.05412Q114.66023,102.07213,114.78061,102.09607Q114.901,102.12002,115.02006,102.14984Q115.13912,102.17967,115.25658,102.2153Q115.37404,102.25093,115.48961,102.29228Q115.60518,102.33363,115.71858,102.3806Q115.83198,102.42757,115.94293,102.48005Q116.05389,102.53253,116.16214,102.59039Q116.27039,102.64825,116.37567,102.71136Q116.48095,102.77446,116.58301,102.84265Q116.68507,102.91084000000001,116.78366,102.98396Q116.88224,103.05708,116.97713,103.13495Q117.07201,103.21282,117.16295,103.29524Q117.2539,103.37767,117.34069,103.46447Q117.42749,103.55126,117.50991,103.64221Q117.59234000000001,103.73315,117.67021,103.82803Q117.74808,103.92292,117.8212,104.0215Q117.89431,104.12009,117.96251,104.22215Q118.0307,104.32421,118.0938,104.42949Q118.15690000000001,104.53477,118.21477,104.64302Q118.27263,104.75127,118.32511,104.86222Q118.37758,104.97318,118.42456,105.08658Q118.47153,105.19998,118.51288,105.31555Q118.55423,105.43111999999999,118.58986,105.54858Q118.62549,105.66603,118.65532,105.7851Q118.68514,105.90416,118.70908,106.024549Q118.73303,106.144933,118.75104,106.266348Q118.76905,106.387762,118.78108,106.509914Q118.79311,106.632066,118.79914,106.754662Q118.80516,106.877257,118.80516,107Z" fill="url(#master_svg4_4005_205230)" fill-opacity="1"/></g></g></svg>