<svg width="30" height="30" viewBox="0 0 30 30" fill="none" xmlns="http://www.w3.org/2000/svg">
<path d="M6.79108 18.7707C6.79108 20.3953 5.46395 21.7224 3.83938 21.7224C2.21481 21.7224 0.887695 20.3953 0.887695 18.7707C0.887695 17.1462 2.21481 15.819 3.83938 15.819H6.79108V18.7707ZM8.27838 18.7707C8.27838 17.1462 9.60548 15.819 11.2301 15.819C12.8547 15.819 14.1817 17.1462 14.1817 18.7707V26.1613C14.1817 27.786 12.8547 29.113 11.2301 29.113C9.60548 29.113 8.27838 27.786 8.27838 26.1613V18.7707ZM11.2301 6.79108C9.60548 6.79108 8.27838 5.46395 8.27838 3.83938C8.27838 2.21481 9.60548 0.887695 11.2301 0.887695C12.8547 0.887695 14.1817 2.21481 14.1817 3.83938V6.79108H11.2301ZM11.2301 8.27838C12.8547 8.27838 14.1817 9.60548 14.1817 11.2301C14.1817 12.8547 12.8547 14.1817 11.2301 14.1817H3.83938C2.21481 14.1817 0.887695 12.8547 0.887695 11.2301C0.887695 9.60548 2.21481 8.27838 3.83938 8.27838H11.2301ZM23.2098 11.2301C23.2098 9.60548 24.5368 8.27838 26.1613 8.27838C27.786 8.27838 29.113 9.60548 29.113 11.2301C29.113 12.8547 27.786 14.1817 26.1613 14.1817H23.2098V11.2301ZM21.7224 11.2301C21.7224 12.8547 20.3953 14.1817 18.7707 14.1817C17.1462 14.1817 15.819 12.8547 15.819 11.2301V3.83938C15.819 2.21481 17.1462 0.887695 18.7707 0.887695C20.3953 0.887695 21.7224 2.21481 21.7224 3.83938V11.2301ZM18.7707 23.2098C20.3953 23.2098 21.7224 24.5368 21.7224 26.1613C21.7224 27.786 20.3953 29.113 18.7707 29.113C17.1462 29.113 15.819 27.786 15.819 26.1613V23.2098H18.7707ZM18.7707 21.7224C17.1462 21.7224 15.819 20.3953 15.819 18.7707C15.819 17.1462 17.1462 15.819 18.7707 15.819H26.1613C27.786 15.819 29.113 17.1462 29.113 18.7707C29.113 20.3953 27.786 21.7224 26.1613 21.7224H18.7707Z" />
</svg>
