<svg width="32" height="26" viewBox="0 0 32 26" fill="none" xmlns="http://www.w3.org/2000/svg">
<path d="M31.3188 3.48407C30.1737 3.99062 28.9593 4.32332 27.7159 4.47116C29.0259 3.68698 30.0061 2.45335 30.474 1.00007C29.2431 1.73141 27.8958 2.24615 26.4907 2.52191C25.3047 1.25659 23.647 0.539543 21.9127 0.541508C18.4489 0.541508 15.6396 3.34991 15.6396 6.81524C15.6396 7.30687 15.696 7.78363 15.8014 8.24363C10.5857 7.98106 5.96511 5.48507 2.87018 1.68911C2.31294 2.6465 2.02008 3.73477 2.02157 4.8425C2.02157 7.01888 3.12941 8.93986 4.81224 10.0645C3.81606 10.033 2.84183 9.76396 1.97078 9.27959C1.96982 9.30595 1.96982 9.3323 1.96982 9.35722C1.96982 12.3976 4.13229 14.9338 7.00299 15.5096C6.46421 15.6554 5.90849 15.7291 5.35034 15.7286C4.94496 15.7286 4.55157 15.6913 4.16919 15.6179C4.96797 18.1097 7.2833 19.9238 10.0294 19.9736C7.8072 21.7177 5.06304 22.6639 2.23815 22.6598C1.73819 22.6603 1.23864 22.6307 0.742188 22.5716C3.61007 24.4153 6.94829 25.3937 10.3576 25.3901C21.8974 25.3901 28.207 15.8312 28.207 7.54166C28.207 7.27045 28.2004 6.99829 28.1884 6.72995C29.4165 5.84267 30.4765 4.7435 31.3188 3.48407Z" />
</svg>
