<svg width="34" height="28" viewBox="0 0 34 28" fill="none" xmlns="http://www.w3.org/2000/svg">
<path d="M26.8629 16.5671C27.6113 16.5671 28.2099 15.931 28.2099 15.2201C28.2099 14.4718 27.6113 13.8732 26.8629 13.8732C26.1147 13.8732 25.5161 14.4718 25.5161 15.2201C25.5161 15.9685 26.1147 16.5671 26.8629 16.5671ZM20.2245 16.5671C20.9727 16.5671 21.5714 15.931 21.5714 15.2201C21.5714 14.4718 20.9727 13.8732 20.2245 13.8732C19.4762 13.8732 18.8775 14.4718 18.8775 15.2201C18.8775 15.9685 19.4762 16.5671 20.2245 16.5671ZM30.0755 24.1274C29.8913 24.238 29.7807 24.4223 29.8176 24.6803C29.8176 24.7539 29.8176 24.8277 29.8544 24.9014C30.0018 25.5281 30.2964 26.5235 30.2964 26.5604C30.2964 26.6709 30.3333 26.7446 30.3333 26.8184C30.3333 27.0028 30.186 27.1502 30.0018 27.1502C29.928 27.1502 29.8913 27.1133 29.8176 27.0764L27.6441 25.823C27.4967 25.7493 27.3125 25.6756 27.1283 25.6756C27.0179 25.6756 26.9073 25.6756 26.8337 25.7125C25.8021 26.0074 24.7338 26.1548 23.5919 26.1548C18.1028 26.1548 13.6822 22.4684 13.6822 17.8974C13.6822 13.3264 18.1028 9.63994 23.5919 9.63994C29.0808 9.63994 33.5015 13.3264 33.5015 17.8974C33.5015 20.3672 32.1752 22.6159 30.0755 24.1274ZM24.0105 8.14636C23.8715 8.1421 23.732 8.13994 23.5919 8.13994C17.3298 8.13994 12.1822 12.4304 12.1822 17.8974C12.1822 18.7278 12.301 19.5311 12.5244 20.2962H12.3907C11.0614 20.2962 9.73221 20.0755 8.51375 19.7444C8.40299 19.7075 8.29221 19.7075 8.18145 19.7075C7.9599 19.7075 7.73837 19.7812 7.55375 19.8916L4.93222 21.4001C4.85838 21.437 4.78452 21.4738 4.71068 21.4738C4.48914 21.4738 4.30453 21.2899 4.30453 21.069C4.30453 20.9587 4.34145 20.885 4.37838 20.7746C4.4153 20.7378 4.7476 19.5236 4.93222 18.7877C4.93222 18.7141 4.96914 18.6036 4.96914 18.5301C4.96914 18.2357 4.82145 18.0149 4.63683 17.8678C2.08915 16.0647 0.501465 13.3787 0.501465 10.3981C0.501465 4.91553 5.8553 0.5 12.4276 0.5C18.0735 0.5 22.8203 3.75284 24.0105 8.14636ZM16.2798 8.77406C17.139 8.77406 17.8193 8.05806 17.8193 7.2347C17.8193 6.37551 17.139 5.69534 16.2798 5.69534C15.4206 5.69534 14.7405 6.37551 14.7405 7.2347C14.7405 8.09387 15.4206 8.77406 16.2798 8.77406ZM8.39067 8.77406C9.24986 8.77406 9.93003 8.05806 9.93003 7.2347C9.93003 6.37551 9.24986 5.69534 8.39067 5.69534C7.5315 5.69534 6.85131 6.37551 6.85131 7.2347C6.85131 8.09387 7.5315 8.77406 8.39067 8.77406Z" />
</svg>
