<svg width="30" height="24" viewBox="0 0 30 24" fill="none" xmlns="http://www.w3.org/2000/svg">
<path d="M15.3659 0C16.167 0.00441 18.1714 0.0237901 20.3011 0.109095L21.0563 0.14202C23.2005 0.24354 25.343 0.41697 26.4056 0.71325C27.8229 1.11143 28.9369 2.27325 29.3134 3.74598C29.913 6.08462 29.988 10.6491 29.9973 11.7537L29.9986 11.9826V11.9986C29.9986 11.9986 29.9986 12.0042 29.9986 12.0149L29.9973 12.2438C29.988 13.3484 29.913 17.9128 29.3134 20.2515C28.9317 21.7296 27.8177 22.8915 26.4056 23.2842C25.343 23.5805 23.2005 23.7539 21.0563 23.8554L20.3011 23.8883C18.1714 23.9736 16.167 23.993 15.3659 23.9975L15.0142 23.9986H14.9986C14.9986 23.9986 14.9934 23.9986 14.983 23.9986L14.6318 23.9975C12.9362 23.9882 5.84658 23.9115 3.59176 23.2842C2.1744 22.886 1.06038 21.7242 0.683805 20.2515C0.0842999 17.9128 0.00936 13.3484 0 12.2438V11.7537C0.00936 10.6491 0.0842999 6.08462 0.683805 3.74598C1.0656 2.26779 2.17962 1.10598 3.59176 0.71325C5.84658 0.0858452 12.9362 0.00933 14.6318 0H15.3659ZM11.9987 6.74871V17.2486L20.9986 11.9986L11.9987 6.74871Z" />
</svg>
