<svg width="185" height="89" viewBox="0 0 185 89" fill="none" xmlns="http://www.w3.org/2000/svg">
<g clip-path="url(#clip0_2452_645)">
<path d="M164.744 89H132.238C130.649 89 129.379 87.7294 129.379 86.2471V53.6353C129.379 52.1529 130.649 50.8824 132.238 50.8824H164.744C166.332 50.8824 167.602 52.1529 167.602 53.6353V86.2471C167.602 87.7294 166.332 89 164.744 89Z" fill="url(#paint0_linear_2452_645)"/>
<path d="M135.097 74.7059H140.709V56.4942H135.097V74.7059ZM137.956 83.7059C139.756 83.7059 141.239 82.2236 141.239 80.4236C141.239 78.6236 139.756 77.1412 137.956 77.1412C136.156 77.1412 134.674 78.6236 134.674 80.4236C134.674 82.2236 136.156 83.7059 137.956 83.7059ZM144.309 74.7059H149.709V72.2706H149.815C150.556 73.753 152.462 75.2353 155.215 75.2353C160.933 75.2353 161.991 71.4236 161.991 66.553V56.6H156.38V65.4942C156.38 67.6118 156.38 70.3648 153.415 70.3648C150.45 70.3648 150.027 68.0353 150.027 65.7059V56.7059H144.415V74.7059H144.309Z" fill="url(#paint1_linear_2452_645)"/>
<path d="M18 17.1358H23.8928V38.4972H34.6261V43.8639H18V17.1358ZM37.2569 25.7645H42.834V43.8639H37.2569V25.7645ZM40.098 16.7148C41.8869 16.7148 43.3601 18.188 43.3601 19.9769C43.3601 21.7658 41.8869 23.239 40.098 23.239C38.3091 23.239 36.8359 21.7658 36.8359 19.9769C36.8359 18.188 38.2039 16.7148 40.098 16.7148ZM66.3 17.1358H71.9823V33.1305L78.2961 25.7645H85.2412L77.8752 34.0776L85.0307 43.8639H77.9804L71.9823 34.9194V43.8639H66.3V17.1358ZM45.9908 25.7645H51.3575V28.1848H51.4627C52.1993 26.7116 54.0935 25.2384 56.8294 25.2384C62.5118 25.2384 63.564 29.0266 63.564 33.8671V43.7586H57.9869V34.9194C57.9869 32.8148 57.9869 30.0789 55.0405 30.0789C52.0941 30.0789 51.6732 32.3939 51.6732 34.709V43.6534H46.0961V25.7645H45.9908Z" fill="#007BB6"/>
<path d="M97.0269 32.7096C97.0269 30.8155 95.5537 29.237 93.5543 29.237C91.1341 29.237 89.7661 30.9207 89.5556 32.7096H97.0269ZM101.762 40.707C99.9733 43.022 97.0269 44.2848 94.0805 44.2848C88.5034 44.2848 83.9785 40.4965 83.9785 34.7089C83.9785 28.9214 88.5034 25.1331 94.0805 25.1331C99.3419 25.1331 102.604 28.9214 102.604 34.7089V36.4978H89.5556C89.9766 38.6024 91.6602 39.9704 93.7648 39.9704C95.5537 39.9704 96.8164 39.0233 97.7635 37.7606L101.762 40.707ZM114.284 30.0789C111.443 30.0789 109.76 31.973 109.76 34.7089C109.76 37.4449 111.443 39.339 114.284 39.339C117.126 39.339 118.809 37.4449 118.809 34.7089C118.809 31.973 117.126 30.0789 114.284 30.0789ZM123.965 43.8638H118.809V41.4436H118.704C117.862 42.7063 115.652 44.2848 113.127 44.2848C107.76 44.2848 104.182 40.3913 104.182 34.9194C104.182 29.8684 107.339 25.2384 112.496 25.2384C114.811 25.2384 117.02 25.8697 118.283 27.6586H118.388V17.1357H123.965V43.8638Z" fill="#007BB6"/>
<path d="M164.689 11.5586H132.384C130.806 11.5586 129.543 12.8213 129.543 14.2945V46.705C129.543 48.1782 130.806 49.4409 132.384 49.4409H164.689C166.268 49.4409 167.531 48.1782 167.531 46.705V14.2945C167.531 12.8213 166.268 11.5586 164.689 11.5586Z" fill="#007BB6"/>
<path d="M135.226 25.7648H140.803V43.8641H135.226V25.7648ZM138.067 16.8203C139.856 16.8203 141.329 18.2935 141.329 20.0824C141.329 21.8713 139.856 23.3445 138.067 23.3445C136.278 23.3445 134.805 21.8713 134.805 20.0824C134.805 18.2935 136.278 16.8203 138.067 16.8203ZM144.381 25.7648H149.747V28.185H149.852C150.589 26.7118 152.483 25.2386 155.219 25.2386C160.901 25.2386 161.954 29.0268 161.954 33.8674V43.7589H156.377V34.9197C156.377 32.8151 156.377 30.0791 153.43 30.0791C150.484 30.0791 150.063 32.3942 150.063 34.7092V43.6536H144.486V25.7648H144.381Z" fill="white"/>
<path d="M18 72.5659H23.8717V50.5349H34.5665V45H18V72.5659ZM37.1878 63.6667H42.7449V45H37.1878V63.6667ZM40.0188 73C41.8013 73 43.2692 71.4806 43.2692 69.6357C43.2692 67.7907 41.8013 66.2713 40.0188 66.2713C38.2363 66.2713 36.7684 67.7907 36.7684 69.6357C36.7684 71.4806 38.1315 73 40.0188 73ZM66.1268 72.5659H71.7887V56.0698L78.0798 63.6667H85L77.6604 55.093L84.7903 45H77.7653L71.7887 54.2248V45H66.1268V72.5659ZM45.8905 63.6667H51.2379V61.1705H51.3427C52.0767 62.6899 53.964 64.2093 56.6901 64.2093C62.3521 64.2093 63.4006 60.3023 63.4006 55.3101V45.1085H57.8435V54.2248C57.8435 56.3953 57.8435 59.2171 54.9077 59.2171C51.9718 59.2171 51.5524 56.8295 51.5524 54.4419V45.2171H45.9953V63.6667H45.8905Z" fill="url(#paint2_linear_2452_645)"/>
<path d="M97.0526 56.938C97.0526 58.8915 95.5789 60.5194 93.5789 60.5194C91.1579 60.5194 89.7895 58.7829 89.5789 56.938H97.0526ZM101.789 48.6899C100 46.3023 97.0526 45 94.1053 45C88.5263 45 84 48.907 84 54.876C84 60.845 88.5263 64.7519 94.1053 64.7519C99.3684 64.7519 102.632 60.845 102.632 54.876V53.031H89.5789C90 50.8605 91.6842 49.4496 93.7895 49.4496C95.5789 49.4496 96.8421 50.4264 97.7895 51.7287L101.789 48.6899ZM114.316 59.6512C111.474 59.6512 109.789 57.6977 109.789 54.876C109.789 52.0543 111.474 50.1008 114.316 50.1008C117.158 50.1008 118.842 52.0543 118.842 54.876C118.842 57.6977 117.158 59.6512 114.316 59.6512ZM124 45.4341H118.842V47.9302H118.737C117.895 46.6279 115.684 45 113.158 45C107.789 45 104.211 49.0155 104.211 54.6589C104.211 59.8682 107.368 64.6434 112.526 64.6434C114.842 64.6434 117.053 63.9922 118.316 62.1473H118.421V73H124V45.4341Z" fill="url(#paint3_linear_2452_645)"/>
</g>
<defs>
<linearGradient id="paint0_linear_2452_645" x1="148.491" y1="89" x2="148.491" y2="50.8824" gradientUnits="userSpaceOnUse">
<stop stop-color="#191717"/>
<stop offset="1" stop-color="#282626"/>
</linearGradient>
<linearGradient id="paint1_linear_2452_645" x1="148.333" y1="83.7059" x2="148.333" y2="56.4942" gradientUnits="userSpaceOnUse">
<stop stop-color="white" stop-opacity="0"/>
<stop offset="1" stop-color="#999999" stop-opacity="0.2"/>
</linearGradient>
<linearGradient id="paint2_linear_2452_645" x1="51.5" y1="73" x2="51.5" y2="45" gradientUnits="userSpaceOnUse">
<stop stop-color="#181616"/>
<stop offset="1" stop-color="#282626"/>
</linearGradient>
<linearGradient id="paint3_linear_2452_645" x1="104" y1="73" x2="104" y2="45" gradientUnits="userSpaceOnUse">
<stop stop-color="#181616"/>
<stop offset="1" stop-color="#282626"/>
</linearGradient>
<clipPath id="clip0_2452_645">
<rect width="185" height="89" fill="white"/>
</clipPath>
</defs>
</svg>
