<svg width="77" height="89" viewBox="0 0 77 89" fill="none" xmlns="http://www.w3.org/2000/svg">
<g clip-path="url(#clip0_2452_630)">
<path d="M53.5424 93.2611C53.5424 95.8511 55.8934 97.967 58.7712 97.967C61.6491 97.967 64 95.8511 64 93.2611C64 90.6709 61.6491 88.5552 58.7712 88.5552H53.5424V93.2611ZM50.9077 93.2611C50.9077 90.6709 48.5568 88.5552 45.6789 88.5552C42.801 88.5552 40.4502 90.6709 40.4502 93.2611V105.044C40.4502 107.634 42.801 109.75 45.6789 109.75C48.5568 109.75 50.9077 107.634 50.9077 105.044V93.2611ZM45.6789 74.1618C48.5568 74.1618 50.9077 72.046 50.9077 69.4559C50.9077 66.8658 48.5568 64.75 45.6789 64.75C42.801 64.75 40.4502 66.8658 40.4502 69.4559V74.1618H45.6789ZM45.6789 76.533C42.801 76.533 40.4502 78.6489 40.4502 81.2389C40.4502 83.829 42.801 85.9449 45.6789 85.9449H58.7712C61.6491 85.9449 64 83.829 64 81.2389C64 78.6489 61.6491 76.533 58.7712 76.533H45.6789ZM24.4574 81.2389C24.4574 78.6489 22.1065 76.533 19.2288 76.533C16.3508 76.533 14 78.6489 14 81.2389C14 83.829 16.3508 85.9449 19.2288 85.9449H24.4574V81.2389ZM27.0922 81.2389C27.0922 83.829 29.443 85.9449 32.321 85.9449C35.1988 85.9449 37.5498 83.829 37.5498 81.2389V69.4559C37.5498 66.8658 35.1988 64.75 32.321 64.75C29.443 64.75 27.0922 66.8658 27.0922 69.4559V81.2389ZM32.321 100.338C29.443 100.338 27.0922 102.454 27.0922 105.044C27.0922 107.634 29.443 109.75 32.321 109.75C35.1988 109.75 37.5498 107.634 37.5498 105.044V100.338H32.321ZM32.321 97.967C35.1988 97.967 37.5498 95.8511 37.5498 93.2611C37.5498 90.6709 35.1988 88.5552 32.321 88.5552H19.2288C16.3508 88.5552 14 90.6709 14 93.2611C14 95.8511 16.3508 97.967 19.2288 97.967H32.321Z" fill="url(#paint0_linear_2452_630)"/>
<path d="M24.3526 43.4809C24.3526 46.4072 21.962 48.7979 19.0357 48.7979C16.1093 48.7979 13.7188 46.4072 13.7188 43.4809C13.7188 40.5544 16.1093 38.164 19.0357 38.164H24.3526V43.4809ZM27.0317 43.4809C27.0317 40.5544 29.4223 38.164 32.3486 38.164C35.2751 38.164 37.6656 40.5544 37.6656 43.4809V56.7938C37.6656 59.7203 35.2751 62.1108 32.3486 62.1108C29.4223 62.1108 27.0317 59.7203 27.0317 56.7938V43.4809ZM32.3486 21.9017C29.4223 21.9017 27.0317 19.5111 27.0317 16.5848C27.0317 13.6584 29.4223 11.2678 32.3486 11.2678C35.2751 11.2678 37.6656 13.6584 37.6656 16.5848V21.9017H32.3486ZM32.3486 24.5808C35.2751 24.5808 37.6656 26.9714 37.6656 29.8977C37.6656 32.8241 35.2751 35.2148 32.3486 35.2148H19.0357C16.1093 35.2148 13.7188 32.8241 13.7188 29.8977C13.7188 26.9714 16.1093 24.5808 19.0357 24.5808H32.3486ZM53.9279 29.8977C53.9279 26.9714 56.3184 24.5808 59.2446 24.5808C62.1711 24.5808 64.5616 26.9714 64.5616 29.8977C64.5616 32.8241 62.1711 35.2148 59.2446 35.2148H53.9279V29.8977ZM51.2487 29.8977C51.2487 32.8241 48.8582 35.2148 45.9317 35.2148C43.0055 35.2148 40.6148 32.8241 40.6148 29.8977V16.5848C40.6148 13.6584 43.0055 11.2678 45.9317 11.2678C48.8582 11.2678 51.2487 13.6584 51.2487 16.5848V29.8977ZM45.9317 51.4769C48.8582 51.4769 51.2487 53.8676 51.2487 56.7938C51.2487 59.7203 48.8582 62.1108 45.9317 62.1108C43.0055 62.1108 40.6148 59.7203 40.6148 56.7938V51.4769H45.9317ZM45.9317 48.7979C43.0055 48.7979 40.6148 46.4072 40.6148 43.4809C40.6148 40.5544 43.0055 38.164 45.9317 38.164H59.2446C62.1711 38.164 64.5616 40.5544 64.5616 43.4809C64.5616 46.4072 62.1711 48.7979 59.2446 48.7979H45.9317Z" fill="#00BF7D"/>
<path d="M24.3526 43.4808C24.3526 46.407 21.962 48.7977 19.0357 48.7977C16.1093 48.7977 13.7188 46.407 13.7188 43.4808C13.7188 40.5543 16.1093 38.1638 19.0357 38.1638H24.3526V43.4808ZM27.0317 43.4808C27.0317 40.5543 29.4223 38.1638 32.3486 38.1638C35.2751 38.1638 37.6656 40.5543 37.6656 43.4808V56.7937C37.6656 59.7202 35.2751 62.1106 32.3486 62.1106C29.4223 62.1106 27.0317 59.7202 27.0317 56.7937V43.4808Z" fill="#EE004E"/>
<path d="M32.3486 21.3839C29.4223 21.3839 27.0317 18.9933 27.0317 16.0669C27.0317 13.1406 29.4223 10.75 32.3486 10.75C35.2751 10.75 37.6656 13.1406 37.6656 16.0669V21.3839H32.3486ZM32.3486 24.063C35.2751 24.063 37.6656 26.4535 37.6656 29.3799C37.6656 32.3062 35.2751 34.6969 32.3486 34.6969H19.0357C16.1093 34.6969 13.7188 32.3062 13.7188 29.3799C13.7188 26.4535 16.1093 24.063 19.0357 24.063H32.3486Z" fill="#02C5F3"/>
<path d="M45.9322 51.6794C48.8587 51.6794 51.2491 54.0701 51.2491 56.9963C51.2491 59.9228 48.8587 62.3133 45.9322 62.3133C43.0059 62.3133 40.6152 59.9228 40.6152 56.9963V51.6794H45.9322ZM45.9322 49.0004C43.0059 49.0004 40.6152 46.6096 40.6152 43.6834C40.6152 40.7569 43.0059 38.3665 45.9322 38.3665H59.2451C62.1716 38.3665 64.562 40.7569 64.562 43.6834C64.562 46.6096 62.1716 49.0004 59.2451 49.0004H45.9322Z" fill="#EFB401"/>
</g>
<defs>
<linearGradient id="paint0_linear_2452_630" x1="39" y1="64.75" x2="39" y2="109.75" gradientUnits="userSpaceOnUse">
<stop stop-color="white" stop-opacity="0.1"/>
<stop offset="1" stop-color="#999999" stop-opacity="0"/>
</linearGradient>
<clipPath id="clip0_2452_630">
<rect width="77" height="89" fill="white"/>
</clipPath>
</defs>
</svg>
