<svg width="77" height="89" viewBox="0 0 77 89" fill="none" xmlns="http://www.w3.org/2000/svg">
<path d="M61.1271 15.2547C59.4731 15.9863 57.7189 16.4669 55.923 16.6804C57.8151 15.5477 59.231 13.7658 59.9068 11.6667C58.1289 12.723 56.1828 13.4665 54.1532 13.8649C52.4401 12.0372 50.0457 11.0014 47.5406 11.0043C42.5373 11.0043 38.4794 15.0609 38.4794 20.0663C38.4794 20.7765 38.5608 21.4651 38.7131 22.1296C31.1794 21.7503 24.5052 18.145 20.0347 12.6619C19.2298 14.0448 18.8068 15.6168 18.8089 17.2168C18.8089 20.3605 20.4091 23.1352 22.8399 24.7597C21.401 24.7142 19.9938 24.3256 18.7356 23.626C18.7342 23.664 18.7342 23.7021 18.7342 23.7381C18.7342 28.1297 21.8578 31.7931 26.0043 32.6249C25.2261 32.8355 24.4234 32.9419 23.6172 32.9413C23.0316 32.9413 22.4634 32.8873 21.9111 32.7814C23.0648 36.3806 26.4092 39.001 30.3758 39.0729C27.166 41.5921 23.2022 42.9588 19.1218 42.953C18.3996 42.9536 17.678 42.911 16.9609 42.8256C21.1034 45.4886 25.9253 46.902 30.8499 46.8968C47.5185 46.8968 56.6323 33.0895 56.6323 21.1156C56.6323 20.7239 56.6228 20.3307 56.6055 19.9431C58.3793 18.6615 59.9105 17.0738 61.1271 15.2547Z" fill="#01AEE5"/>
<path d="M61.1271 76.6879C59.4731 76.0125 57.7189 75.5689 55.923 75.3718C57.8151 76.4174 59.231 78.0622 59.9068 79.9999C58.1289 79.0248 56.1828 78.3385 54.1532 77.9708C52.4401 79.6579 50.0457 80.6139 47.5406 80.6113C42.5373 80.6113 38.4794 76.8668 38.4794 72.2463C38.4794 71.5908 38.5608 70.9552 38.7131 70.3418C31.1794 70.6919 24.5052 74.0199 20.0347 79.0812C19.2298 77.8047 18.8068 76.3536 18.8089 74.8767C18.8089 71.9748 20.4091 69.4135 22.8399 67.914C21.401 67.956 19.9938 68.3147 18.7356 68.9605C18.7342 68.9254 18.7342 68.8903 18.7342 68.857C18.7342 64.8032 21.8578 61.4216 26.0043 60.6538C25.2261 60.4594 24.4234 60.3612 23.6172 60.3618C23.0316 60.3618 22.4634 60.4116 21.9111 60.5094C23.0648 57.187 26.4092 54.7682 30.3758 54.7018C27.166 52.3764 23.2022 51.1148 19.1218 51.1202C18.3996 51.1196 17.678 51.159 16.9609 51.2378C21.1034 48.7796 25.9253 47.475 30.8499 47.4798C47.5185 47.4798 56.6323 60.225 56.6323 71.2778C56.6323 71.6394 56.6228 72.0023 56.6055 72.3601C58.3793 73.5431 59.9105 75.0087 61.1271 76.6879Z" fill="url(#paint0_linear_2452_672)"/>
<defs>
<linearGradient id="paint0_linear_2452_672" x1="39.044" y1="47.4798" x2="39.044" y2="80.6113" gradientUnits="userSpaceOnUse">
<stop stop-color="#282626"/>
<stop offset="1" stop-color="#1B1919" stop-opacity="0.68"/>
</linearGradient>
</defs>
</svg>
