<svg width="77" height="89" viewBox="0 0 77 89" fill="none" xmlns="http://www.w3.org/2000/svg">
<g clip-path="url(#clip0_2452_699)">
<g clip-path="url(#clip1_2452_699)">
<path d="M54.213 37.8498C55.481 37.8498 56.4954 36.7719 56.4954 35.5674C56.4954 34.2994 55.481 33.2852 54.213 33.2852C52.9452 33.2852 51.9308 34.2994 51.9308 35.5674C51.9308 36.8354 52.9452 37.8498 54.213 37.8498ZM42.9646 37.8498C44.2324 37.8498 45.2467 36.7719 45.2467 35.5674C45.2467 34.2994 44.2324 33.2852 42.9646 33.2852C41.6965 33.2852 40.6822 34.2994 40.6822 35.5674C40.6822 36.8354 41.6965 37.8498 42.9646 37.8498ZM59.6565 50.6603C59.3443 50.8476 59.157 51.16 59.2196 51.5972C59.2196 51.722 59.2196 51.847 59.2818 51.9718C59.5317 53.0337 60.0309 54.7204 60.0309 54.7829C60.0309 54.9702 60.0934 55.095 60.0934 55.2201C60.0934 55.5324 59.8438 55.7823 59.5317 55.7823C59.4066 55.7823 59.3443 55.7198 59.2196 55.6572L55.5367 53.5334C55.2868 53.4086 54.9747 53.2836 54.6626 53.2836C54.4755 53.2836 54.2882 53.2836 54.1634 53.3461C52.4155 53.8458 50.6053 54.0956 48.6704 54.0956C39.3694 54.0956 31.879 47.8492 31.879 40.104C31.879 32.3585 39.3694 26.1121 48.6704 26.1121C57.9711 26.1121 65.4616 32.3585 65.4616 40.104C65.4616 44.2889 63.2143 48.0991 59.6565 50.6603ZM49.3797 23.5813C49.1441 23.5741 48.9078 23.5704 48.6704 23.5704C38.0597 23.5704 29.3373 30.8404 29.3373 40.104C29.3373 41.5111 29.5386 42.8721 29.9171 44.1687H29.6905C27.4382 44.1687 25.1859 43.7945 23.1213 43.2336C22.9336 43.171 22.7459 43.171 22.5582 43.171C22.1828 43.171 21.8074 43.2958 21.4946 43.4829L17.0526 46.0391C16.9275 46.1016 16.8023 46.1639 16.6772 46.1639C16.3018 46.1639 15.989 45.8522 15.989 45.4781C15.989 45.291 16.0516 45.1663 16.1141 44.9792C16.1767 44.9169 16.7398 42.8594 17.0526 41.6125C17.0526 41.4877 17.1151 41.3006 17.1151 41.1761C17.1151 40.6772 16.8649 40.303 16.5521 40.0537C12.2352 36.9986 9.54492 32.4472 9.54492 27.3968C9.54492 18.1069 18.6167 10.625 29.7531 10.625C39.3198 10.625 47.3629 16.1368 49.3797 23.5813ZM36.2805 24.6449C37.7364 24.6449 38.889 23.4317 38.889 22.0366C38.889 20.5807 37.7364 19.4282 36.2805 19.4282C34.8246 19.4282 33.6722 20.5807 33.6722 22.0366C33.6722 23.4924 34.8246 24.6449 36.2805 24.6449ZM22.9127 24.6449C24.3686 24.6449 25.5211 23.4317 25.5211 22.0366C25.5211 20.5807 24.3686 19.4282 22.9127 19.4282C21.4569 19.4282 20.3044 20.5807 20.3044 22.0366C20.3044 23.4924 21.4569 24.6449 22.9127 24.6449Z" fill="#0ABE14"/>
</g>
<path d="M21.2405 64.5789C19.9308 64.5789 18.8832 65.6745 18.8832 66.8987C18.8832 68.1875 19.9308 69.2183 21.2405 69.2183C22.5498 69.2183 23.5974 68.1875 23.5974 66.8987C23.5974 65.6099 22.5498 64.5789 21.2405 64.5789ZM32.8577 64.5789C31.5483 64.5789 30.5007 65.6745 30.5007 66.8987C30.5007 68.1875 31.5483 69.2183 32.8577 69.2183C34.1673 69.2183 35.2149 68.1875 35.2149 66.8987C35.2149 65.6099 34.1673 64.5789 32.8577 64.5789ZM15.6185 51.5584C15.9408 51.368 16.1343 51.0505 16.0697 50.6061C16.0697 50.4793 16.0697 50.3522 16.0054 50.2254C15.7474 49.146 15.2318 47.4317 15.2318 47.3682C15.2318 47.1778 15.1673 47.051 15.1673 46.9239C15.1673 46.6064 15.425 46.3524 15.7474 46.3524C15.8765 46.3524 15.9408 46.416 16.0697 46.4795L19.8734 48.6382C20.1314 48.765 20.4537 48.8921 20.7761 48.8921C20.9693 48.8921 21.1628 48.8921 21.2916 48.8286C23.0969 48.3207 24.9664 48.0667 26.9648 48.0667C36.5707 48.0667 44.3067 54.4155 44.3067 62.2877C44.3067 70.1602 36.5707 76.509 26.9648 76.509C17.3591 76.509 9.623 70.1602 9.623 62.2877C9.623 58.0343 11.944 54.1616 15.6185 51.5584ZM26.2322 79.0813C26.4755 79.0886 26.7196 79.0923 26.9648 79.0923C37.9234 79.0923 46.9317 71.7032 46.9317 62.2877C46.9317 60.8576 46.7239 59.4742 46.3329 58.1565H46.567C48.8931 58.1565 51.2192 58.5367 53.3516 59.1069C53.5454 59.1704 53.7392 59.1704 53.9331 59.1704C54.3208 59.1704 54.7085 59.0436 55.0316 58.8534L59.6192 56.2554C59.7484 56.1918 59.8777 56.1285 60.0069 56.1285C60.3946 56.1285 60.7177 56.4453 60.7177 56.8255C60.7177 57.0157 60.6531 57.1425 60.5884 57.3326C60.5238 57.3959 59.9423 59.4871 59.6192 60.7545C59.6192 60.8814 59.5546 61.0715 59.5546 61.1981C59.5546 61.7052 59.8131 62.0854 60.1362 62.3389C64.5946 65.444 67.373 70.07 67.373 75.2032C67.373 84.6455 58.0038 92.25 46.5023 92.25C36.6219 92.25 28.3151 86.6479 26.2322 79.0813ZM39.7609 78.0002C38.2573 78.0002 37.0668 79.2333 37.0668 80.6513C37.0668 82.1311 38.2573 83.3025 39.7609 83.3025C41.2645 83.3025 42.4547 82.1311 42.4547 80.6513C42.4547 79.1717 41.2645 78.0002 39.7609 78.0002ZM53.5669 78.0002C52.0634 78.0002 50.8731 79.2333 50.8731 80.6513C50.8731 82.1311 52.0634 83.3025 53.5669 83.3025C55.0705 83.3025 56.2608 82.1311 56.2608 80.6513C56.2608 79.1717 55.0705 78.0002 53.5669 78.0002Z" fill="url(#paint0_linear_2452_699)"/>
</g>
<defs>
<linearGradient id="paint0_linear_2452_699" x1="38.498" y1="92.25" x2="38.498" y2="46.3524" gradientUnits="userSpaceOnUse">
<stop stop-color="white" stop-opacity="0"/>
<stop offset="1" stop-color="#999999" stop-opacity="0.2"/>
</linearGradient>
<clipPath id="clip0_2452_699">
<rect width="77" height="89" fill="white"/>
</clipPath>
<clipPath id="clip1_2452_699">
<rect width="61" height="61" fill="white" transform="translate(7 3)"/>
</clipPath>
</defs>
</svg>
