<svg width="77" height="89" viewBox="0 0 77 89" fill="none" xmlns="http://www.w3.org/2000/svg">
<g clip-path="url(#clip0_2452_690)">
<path d="M39.1206 11.1666C40.4781 11.1741 43.8745 11.2069 47.4832 11.3515L48.7626 11.4073C52.3959 11.5793 56.0262 11.8732 57.8267 12.3752C60.2283 13.0499 62.116 15.0185 62.754 17.514C63.7699 21.4767 63.897 29.2109 63.9127 31.0826L63.915 31.4705V31.4977C63.915 31.4977 63.915 31.5071 63.915 31.5251L63.9127 31.913C63.897 33.7847 63.7699 41.519 62.754 45.4817C62.1071 47.9862 60.2194 49.955 57.8267 50.6204C56.0262 51.1224 52.3959 51.4162 48.7626 51.5883L47.4832 51.6439C43.8745 51.7886 40.4781 51.8214 39.1206 51.829L38.5248 51.831H38.4984C38.4984 51.831 38.4895 51.831 38.4719 51.831L37.8767 51.829C35.0036 51.8132 22.9907 51.6833 19.17 50.6204C16.7684 49.9456 14.8807 47.9771 14.2427 45.4817C13.2268 41.519 13.0998 33.7847 13.084 31.913V31.0826C13.0998 29.2109 13.2268 21.4767 14.2427 17.514C14.8896 15.0093 16.7772 13.0406 19.17 12.3752C22.9907 11.3121 35.0036 11.1824 37.8767 11.1666H39.1206ZM33.4151 22.6019V40.3935L48.665 31.4977L33.4151 22.6019Z" fill="#FE021C"/>
<path d="M39.1206 90.8334C40.4781 90.8259 43.8745 90.7931 47.4832 90.6485L48.7626 90.5927C52.3959 90.4207 56.0262 90.1268 57.8267 89.6248C60.2283 88.9501 62.116 86.9815 62.754 84.486C63.7699 80.5233 63.897 72.7891 63.9127 70.9174L63.915 70.5295V70.5023C63.915 70.5023 63.915 70.4929 63.915 70.4749L63.9127 70.087C63.897 68.2153 63.7699 60.481 62.754 56.5183C62.1071 54.0138 60.2194 52.045 57.8267 51.3796C56.0262 50.8776 52.3959 50.5838 48.7626 50.4117L47.4832 50.3561C43.8745 50.2114 40.4781 50.1787 39.1206 50.171L38.5248 50.169H38.4984C38.4984 50.169 38.4895 50.169 38.4719 50.169L37.8767 50.171C35.0036 50.1868 22.9907 50.3167 19.17 51.3796C16.7684 52.0544 14.8807 54.0229 14.2427 56.5183C13.2268 60.481 13.0998 68.2153 13.084 70.087V70.9174C13.0998 72.7891 13.2268 80.5233 14.2427 84.486C14.8896 86.9907 16.7772 88.9594 19.17 89.6248C22.9907 90.6879 35.0036 90.8176 37.8767 90.8334H39.1206ZM33.4151 79.3981V61.6065L48.665 70.5023L33.4151 79.3981Z" fill="url(#paint0_linear_2452_690)"/>
</g>
<defs>
<linearGradient id="paint0_linear_2452_690" x1="38.4995" y1="90.8334" x2="38.4995" y2="50.169" gradientUnits="userSpaceOnUse">
<stop stop-color="white" stop-opacity="0"/>
<stop offset="1" stop-color="#999999" stop-opacity="0.2"/>
</linearGradient>
<clipPath id="clip0_2452_690">
<rect width="77" height="89" fill="white"/>
</clipPath>
</defs>
</svg>
