<svg width="46" height="46" viewBox="0 0 46 46" fill="none" xmlns="http://www.w3.org/2000/svg">
<g clip-path="url(#clip0_2062_4430)">
<path d="M23.0009 1.53005e-08C29.1008 1.53005e-08 34.951 2.42321 39.2643 6.73654C43.5776 11.0499 46.0009 16.9 46.0009 23C46.0009 29.1 43.5776 34.9501 39.2643 39.2635C34.951 43.5768 29.1008 46 23.0009 46H0.000849104L6.73985 39.2668C3.52226 36.0505 1.33078 31.9522 0.44259 27.4903C-0.445599 23.0284 0.00940442 18.4033 1.75005 14.2C3.4907 9.99677 6.43879 6.40412 10.2214 3.8765C14.0041 1.34888 18.4514 -0.00016589 23.0009 1.53005e-08ZM23.0009 5.75C19.238 5.74915 15.5781 6.9787 12.579 9.25124C9.57986 11.5238 7.4061 14.7146 6.38902 18.3374C5.37194 21.9602 5.56734 25.8162 6.94545 29.3176C8.32355 32.819 10.8088 35.7738 14.0222 37.7315L11.5008 40.25H23.0009C25.2662 40.25 27.5093 39.8038 29.6021 38.9369C31.695 38.07 33.5966 36.7994 35.1984 35.1976C36.8003 33.5958 38.0709 31.6942 38.9378 29.6013C39.8047 27.5084 40.2509 25.2653 40.2509 23C40.2509 20.7347 39.8047 18.4916 38.9378 16.3987C38.0709 14.3058 36.8003 12.4042 35.1984 10.8024C33.5966 9.2006 31.695 7.92997 29.6021 7.06308C27.5093 6.19618 25.2662 5.75 23.0009 5.75ZM34.5009 23C34.5009 26.0002 33.3285 28.8817 31.2337 31.0295C29.1389 33.1774 26.2877 34.4216 23.2884 34.4966C20.2892 34.5716 17.3793 33.4715 15.1798 31.4311C12.9802 29.3907 11.6652 26.5715 11.5152 23.575L11.5008 23H34.5009Z" fill="white"/>
</g>
<defs>
<clipPath id="clip0_2062_4430">
<rect width="46" height="46" fill="white"/>
</clipPath>
</defs>
</svg>
