<svg width="28" height="21" viewBox="0 0 28 21" fill="none" xmlns="http://www.w3.org/2000/svg">
<path d="M0 10C0 7.79086 1.79086 6 4 6H24C26.2091 6 28 7.79086 28 10V13C28 15.2091 26.2091 17 24 17H0V10Z" fill="url(#paint0_linear_2465_448)"/>
<path d="M10.304 14H9.464L6.408 9.256H6.376C6.38667 9.44267 6.4 9.67467 6.416 9.952C6.432 10.2293 6.44 10.5147 6.44 10.808V14H5.776V8.288H6.608L9.656 13.016H9.688C9.68267 12.9307 9.67467 12.8027 9.664 12.632C9.65867 12.4613 9.65067 12.2747 9.64 12.072C9.63467 11.8693 9.632 11.6827 9.632 11.512V8.288H10.304V14ZM15.0461 14H11.8541V8.288H15.0461V8.92H12.5741V10.704H14.9021V11.328H12.5741V13.368H15.0461V14ZM22.8594 8.288L21.3394 14H20.6114L19.4994 10.256C19.4568 10.1013 19.4141 9.94667 19.3714 9.792C19.3288 9.63733 19.2941 9.50133 19.2674 9.384C19.2408 9.26133 19.2221 9.176 19.2114 9.128C19.2061 9.19733 19.1768 9.34667 19.1234 9.576C19.0754 9.8 19.0141 10.0347 18.9394 10.28L17.8594 14H17.1314L15.6194 8.288H16.3714L17.2594 11.776C17.3234 12.0213 17.3768 12.2587 17.4194 12.488C17.4674 12.7173 17.5048 12.9333 17.5314 13.136C17.5581 12.928 17.5981 12.7013 17.6514 12.456C17.7048 12.2107 17.7661 11.9707 17.8354 11.736L18.8434 8.288H19.5874L20.6354 11.76C20.7101 12.0053 20.7741 12.2507 20.8274 12.496C20.8808 12.736 20.9208 12.9493 20.9474 13.136C20.9741 12.9387 21.0114 12.7253 21.0594 12.496C21.1074 12.2613 21.1634 12.0187 21.2274 11.768L22.1074 8.288H22.8594Z" fill="white"/>
<defs>
<linearGradient id="paint0_linear_2465_448" x1="17.5" y1="9" x2="17.5" y2="17" gradientUnits="userSpaceOnUse">
<stop stop-color="#FFA007"/>
<stop offset="1" stop-color="#FF1901"/>
</linearGradient>
</defs>
</svg>
