<?xml version="1.0" encoding="UTF-8"?>
<svg width="148px" height="44px" viewBox="0 0 148 44" version="1.1" xmlns="http://www.w3.org/2000/svg" xmlns:xlink="http://www.w3.org/1999/xlink">
    <title>开源之夏新logo-en 2</title>
    <defs>
        <linearGradient x1="100%" y1="50%" x2="0%" y2="50%" id="linearGradient-1">
            <stop stop-color="#3F4FFF" offset="0%"></stop>
            <stop stop-color="#40A0FF" offset="51.8541029%"></stop>
            <stop stop-color="#3F4FFF" offset="100%"></stop>
        </linearGradient>
        <linearGradient x1="0.706041174%" y1="49.6570948%" x2="100.41917%" y2="50.2939924%" id="linearGradient-2">
            <stop stop-color="#FF9F19" offset="0%"></stop>
            <stop stop-color="#FF4050" offset="100%"></stop>
        </linearGradient>
        <linearGradient x1="-3.10602135%" y1="73.4254209%" x2="104.67551%" y2="28.8285599%" id="linearGradient-3">
            <stop stop-color="#FF9F19" offset="0%"></stop>
            <stop stop-color="#FF4050" offset="100%"></stop>
        </linearGradient>
        <linearGradient x1="35.0904449%" y1="96.3682121%" x2="64.8056568%" y2="3.54959132%" id="linearGradient-4">
            <stop stop-color="#FF9F19" offset="0%"></stop>
            <stop stop-color="#FF4050" offset="100%"></stop>
        </linearGradient>
        <linearGradient x1="49.6353848%" y1="99.9241127%" x2="50.3611372%" y2="0.221836888%" id="linearGradient-5">
            <stop stop-color="#FF9F19" offset="0%"></stop>
            <stop stop-color="#FF4050" offset="100%"></stop>
        </linearGradient>
        <linearGradient x1="74.9570831%" y1="104.861066%" x2="31.8358994%" y2="-2.92149039%" id="linearGradient-6">
            <stop stop-color="#FF9F19" offset="0%"></stop>
            <stop stop-color="#FF4050" offset="100%"></stop>
        </linearGradient>
        <linearGradient x1="96.3474752%" y1="65.4629438%" x2="3.53312233%" y2="34.7264649%" id="linearGradient-7">
            <stop stop-color="#FF9F19" offset="0%"></stop>
            <stop stop-color="#FF3F4F" offset="100%"></stop>
        </linearGradient>
        <linearGradient x1="100%" y1="50%" x2="0%" y2="50%" id="linearGradient-8">
            <stop stop-color="#3F70FF" offset="0%"></stop>
            <stop stop-color="#0EC1FF" offset="47.2168522%"></stop>
            <stop stop-color="#3F70FF" offset="100%"></stop>
        </linearGradient>
    </defs>
    <g id="页面-1" stroke="none" stroke-width="1" fill="none" fill-rule="evenodd">
        <g id="交互及浮层2" transform="translate(-360.000000, -19.000000)" fill-rule="nonzero">
            <g id="header" transform="translate(0.000000, 19.000000)">
                <g id="开源之夏新logo-en" transform="translate(360.000000, 0.000000)">
                    <g id="图形">
                        <path d="M51.1412813,20.8266667 C51.1412813,21.5692827 50.6038615,22.278481 49.6188799,22.9356962 C46.0556658,20.5556118 36.6413154,18.851308 25.5836009,18.851308 C14.5258865,18.851308 5.11326411,20.5518987 1.55004999,22.9356962 C0.565068389,22.278481 0.0276486062,21.5674262 0.0276486062,20.8266667 C0.0276486062,17.4087764 11.4689875,14.6388186 25.5836009,14.6388186 C39.6982144,14.6388186 51.1412813,17.4087764 51.1412813,20.8266667 Z" id="路径" fill="url(#linearGradient-1)"></path>
                        <path d="M15.5576131,28.9323207 C13.9379395,28.9312976 12.3265385,28.699412 10.7712217,28.2435443 C8.18053228,27.4980105 5.78956268,26.1737227 3.77572648,24.3689451 L8.10004707,19.8074262 L8.08347879,19.7925738 C9.43923063,20.943033 11.0283449,21.7801354 12.7391649,22.2450633 C16.3584132,23.2234599 20.0402528,22.2970464 23.6815921,19.4918143 C30.3991085,14.3194937 36.490712,14.6648101 40.4173939,15.8455696 C43.0145716,16.6217189 45.4053992,17.9770187 47.4128891,19.8111392 L43.0462274,24.3318143 L43.0627957,24.3466667 C41.7099666,23.1731035 40.119091,22.311988 38.4015868,21.8236287 C34.7915431,20.8081013 31.1189081,21.7103797 27.4867733,24.5081857 C23.0980206,27.8852321 18.979883,28.9323207 15.5576131,28.9323207 Z" id="路径" fill="url(#linearGradient-2)"></path>
                        <path d="M11.4044981,35.409789 C10.2150229,35.4198846 9.02818076,35.2953359 7.86625025,35.038481 L9.3500316,28.9118987 L9.32794056,28.9118987 C11.0725455,29.2253999 12.8640911,29.1493531 14.5764029,28.6891139 C18.1956512,27.7107173 20.9238943,25.0521519 22.6874955,20.7876793 C25.9404007,12.9196624 31.3821596,10.1385654 35.3732737,9.18987342 C38.0056165,8.55328761 40.7461819,8.52156333 43.3923203,9.09704641 L41.8533114,15.2236287 L41.8754024,15.2236287 C40.1215195,14.8896255 38.31646,14.9460172 36.5864399,15.3888608 C32.956146,16.3301266 30.2242211,18.9627004 28.4643018,23.2178903 C25.2187602,31.0691983 19.8119788,33.8911392 15.8503194,34.8751055 C14.395145,35.2332815 12.9023845,35.4128107 11.4044981,35.409789 Z" id="路径" fill="url(#linearGradient-3)"></path>
                        <path d="M16.6989834,42.2307173 L14.9445868,36.1746835 L14.9224958,36.1746835 C16.588924,35.5662652 18.1027495,34.5966488 19.3572716,33.3341772 C22.0063551,30.662616 23.0519976,26.9848101 22.4647442,22.4028692 C21.3804424,13.9500422 24.7143481,8.79628692 27.70032,5.96320675 C29.6665365,4.09085635 32.0244163,2.68747187 34.6000874,1.85654008 L36.2992564,7.9292827 L36.3195065,7.9292827 C34.6361947,8.52458883 33.1019897,9.48320802 31.8239804,10.7382278 C29.1509648,13.3670886 28.0832314,17.0281857 28.6704848,21.5989873 C29.7511047,30.0351055 26.461381,35.2055696 23.525114,38.0553586 C21.5892904,39.9461454 19.2562434,41.3732069 16.6989834,42.2307173 L16.6989834,42.2307173 Z" id="路径" fill="url(#linearGradient-4)"></path>
                        <path d="M27.9101849,44 L23.3888859,39.6389873 L23.3723176,39.6556962 C24.5140961,38.2891161 25.3442768,36.6862837 25.8041727,34.9605063 C26.7743374,31.3105485 25.8557184,27.5974684 23.0759295,23.9252321 C17.947127,17.1507173 18.2784926,11.0092827 19.4603631,7.05485232 C20.2305062,4.43586107 21.5743407,2.02485896 23.3925677,0 L27.8733665,4.40371308 L27.8899348,4.38700422 C26.7243283,5.75350782 25.8703025,7.36134279 25.3881248,9.09704641 C24.3793007,12.7377215 25.2739878,16.441519 28.0482539,20.1044726 C33.1678518,26.8659916 32.888032,32.9981435 31.7521845,36.9507173 C31.01269,39.5616311 29.6995232,41.9710233 27.9101849,44 Z" id="路径" fill="url(#linearGradient-5)"></path>
                        <path d="M38.4973146,39.878481 L32.4222793,38.3821097 L32.4222793,38.4062447 C32.7331159,36.6462144 32.6577104,34.8388692 32.2013689,33.1113924 C31.2312042,29.4614346 28.5950071,26.7100422 24.3664143,24.9314768 C16.5664372,21.6509705 13.8087393,16.1648945 12.8680293,12.1380591 C12.2351672,9.48452848 12.2005677,6.72162937 12.7667787,4.052827 L18.841814,5.60675105 L18.841814,5.58447257 C18.5095212,7.35252856 18.5654468,9.17254178 19.0056559,10.9164557 C19.9371613,14.5775527 22.5494265,17.3345148 26.7669737,19.1075105 C34.5522235,22.3805907 37.3504216,27.8332489 38.32795,31.8303797 C38.9833168,34.4661687 39.0412059,37.2170248 38.4973146,39.878481 Z" id="路径" fill="url(#linearGradient-6)"></path>
                        <path d="M39.6239575,32.7642194 C39.0199822,31.0834416 38.0586293,29.5563048 36.8073502,28.2899578 C34.1582667,25.6202532 30.5095636,24.5638819 25.9661736,25.1561181 C24.9212341,25.2950035 23.8684925,25.3656991 22.8145189,25.3677637 C16.2755718,25.3677637 12.1040476,22.4901266 9.66482888,19.8761181 C7.80699544,17.8931935 6.41361381,15.5154479 5.58719156,12.9178059 L11.6106811,11.2060759 L11.6106811,11.1837975 C12.2009566,12.8823772 13.1522012,14.4303356 14.3978337,15.7193249 C17.0008942,18.4187342 20.6311881,19.4936709 25.1635326,18.8995781 C33.530513,17.8079325 38.6556337,21.1274262 41.4832865,24.0867511 C43.3581648,26.0390002 44.7732195,28.3918432 45.6235151,30.9708017 L39.6165938,32.7400844 L39.6239575,32.7642194 Z" id="路径" fill="url(#linearGradient-7)"></path>
                        <path d="M51.1775701,20.8285232 C51.1775701,24.2464135 39.7362312,27.0182278 25.6216178,27.0182278 C11.5070043,27.0182278 0.0743056292,24.2464135 0.0743056292,20.8285232 L0,25.0447257 C0,28.462616 11.4413389,31.2344304 25.5559523,31.2344304 C39.6705658,31.2344304 51.1032645,28.462616 51.1032645,25.0447257 L51.1775701,20.8285232 Z" id="路径" fill="url(#linearGradient-8)"></path>
                    </g>
                    <g id="编组-2" transform="translate(61.320872, 10.652632)" fill="#3C69F2">
                        <path d="M24.8895972,26.3996946 L25.529882,22.94586 L33.7837352,22.94586 C36.7814323,22.94586 38.4665455,21.5111903 38.4665455,19.4034656 C38.4665455,17.1156692 36.7814323,16.3983343 34.4909589,15.3710399 L31.0537937,13.8684743 C28.6614568,12.8441319 26.5514273,10.9164789 26.5514273,7.2737166 C26.5514273,3.30918681 29.9856822,0.336527473 34.7005067,0.336527473 L42.215122,0.336527473 L41.7989369,3.77560208 L34.7034171,3.77560208 C32.1772025,3.77560208 30.5270139,5.00658415 30.5270139,7.02279699 C30.5270139,9.17480162 32.5148072,9.99545633 34.5346147,10.816111 L37.9397657,12.2921087 C40.8705239,13.5555628 42.4421321,15.4005599 42.4421321,19.0816981 C42.4421321,23.1141238 39.1417549,26.3967426 33.7109756,26.3967426 L24.8895972,26.3996946 Z" id="路径"></path>
                        <path d="M0.081471287,13.3400671 C0.800336503,4.99772817 5.77709569,0 12.3371046,0 C18.8971135,0 23.0444128,4.99772817 22.3255476,13.3400671 C21.6066824,21.682406 16.5804466,26.8631579 10.0204377,26.8631579 C3.46042884,26.8631579 -0.637393929,21.682406 0.081471287,13.3400671 Z M18.1957106,13.3400671 C18.7224903,7.25010064 16.2632146,3.55420243 12.0315141,3.55420243 C7.7998136,3.55420243 4.73517768,7.25010064 4.2113083,13.3400671 C3.68743891,19.4300335 6.09432771,23.3000995 10.3231178,23.3000995 C14.5519079,23.3000995 17.6718412,19.4300335 18.1957106,13.3400671 Z" id="形状"></path>
                        <path d="M56.6419029,0.492983227 L48.9148294,0.492983227 L46.6796533,26.3996946 L50.7047165,26.3996946 L52.6575851,3.7667461 L55.9899765,3.7667461 C60.0499643,3.7667461 62.0668614,4.89145633 61.7729125,8.30691498 C61.4789636,11.7223736 59.3980379,13.3046431 55.3031255,13.3046431 L54.1564337,13.3046431 L53.8653951,16.578406 L55.3962579,16.578406 C60.946363,16.578406 65.2333608,13.9747461 65.7223056,8.31281897 C66.246175,2.46491614 62.343348,0.492983227 56.6419029,0.492983227 Z" id="路径"></path>
                        <path d="M77.5646641,0.492983227 L69.8259491,0.492983227 L67.5936835,26.3996946 L71.6187466,26.3996946 L73.5716153,3.7667461 L76.9010963,3.7667461 C80.961084,3.7667461 82.9808915,4.89145633 82.6869426,8.30691498 C82.3929937,11.7223736 80.312068,13.3046431 76.2171557,13.3046431 L75.0704638,13.3046431 L74.7794252,16.578406 L76.3073776,16.578406 C81.8603931,16.578406 86.1444806,13.9747461 86.6334253,8.31281897 C87.1485636,2.46491614 83.2573782,0.492983227 77.5646641,0.492983227 Z" id="路径"></path>
                    </g>
                </g>
            </g>
        </g>
    </g>
</svg>