<svg width="48" height="48" viewBox="0 0 48 48" fill="none" xmlns="http://www.w3.org/2000/svg">
<path fill-rule="evenodd" clip-rule="evenodd" d="M32.2716 40.9082C32.8398 41.5109 32.8398 42.4883 32.2716 43.091C31.7032 43.6937 30.7818 43.6937 30.2136 43.091L25.9708 38.591C25.4026 37.9883 25.4026 37.0109 25.9708 36.4082L30.2136 31.9082C30.7818 31.3053 31.7032 31.3053 32.2714 31.9082C32.8398 32.5109 32.8398 33.4883 32.2716 34.091L29.0578 37.4996L32.2716 40.9082ZM36.2136 34.091C35.6452 33.4883 35.6452 32.511 36.2136 31.9082C36.7818 31.3055 37.7032 31.3055 38.2716 31.9082L42.5142 36.4082C43.0824 37.011 43.0824 37.9883 42.5142 38.591L38.2716 43.091C37.7032 43.6938 36.7818 43.6938 36.2136 43.091C35.6452 42.4883 35.6452 41.5109 36.2136 40.9082L39.4272 37.4996L36.2136 34.091Z" fill="#EE8332"/>
<path fill-rule="evenodd" clip-rule="evenodd" d="M10.5 9C10.5 6.51471 12.5147 4.5 15 4.5H33C35.4854 4.5 37.5 6.51472 37.5 9V27C37.5 27.8284 36.8284 28.5 36 28.5H29.7426C29.3448 28.5 28.9633 28.6581 28.6819 28.9394L22.0896 35.5317C21.6332 35.9883 21.5199 36.6856 21.8086 37.2631L23.8416 41.3292C24.0741 41.7942 24.0494 42.3464 23.7761 42.7886C23.5026 43.2308 23.0199 43.5 22.5 43.5H15C12.5147 43.5 10.5 41.4854 10.5 39V9ZM19.5 7.5C18.6716 7.5 18 8.17158 18 9C18 9.82842 18.6716 10.5 19.5 10.5H28.5C29.3284 10.5 30 9.82842 30 9C30 8.17158 29.3284 7.5 28.5 7.5H19.5Z" fill="#EE8332"/>
</svg>
