<svg width="48" height="48" viewBox="0 0 48 48" fill="none" xmlns="http://www.w3.org/2000/svg">
<mask id="mask0_1708_4491" style="mask-type:luminance" maskUnits="userSpaceOnUse" x="0" y="0" width="48" height="48">
<path d="M48 0H0V48H48V0Z" fill="white"/>
</mask>
<g mask="url(#mask0_1708_4491)">
<path fill-rule="evenodd" clip-rule="evenodd" d="M3 21C3 16.8579 3 20.25 3 18H45C45 21.75 45 16.8579 45 21V22.5C45 24.9854 42.9854 27 40.5 27H32.4854C31.2918 27 30.1472 27.4742 29.3032 28.3181L25.1186 32.5028C23.7489 33.8724 23.4095 35.9648 24.2757 37.6973L25.3416 39.8292C25.5741 40.2942 25.5493 40.8463 25.2759 41.2885C25.0026 41.7307 24.5199 42 24 42H10.5C6.35787 42 3 38.6421 3 34.5V21Z" fill="#EE8332"/>
<path fill-rule="evenodd" clip-rule="evenodd" d="M33.7716 39.4082C34.3398 40.0109 34.3398 40.9883 33.7716 41.591C33.2032 42.1937 32.2818 42.1937 31.7136 41.591L27.4708 37.091C26.9026 36.4883 26.9026 35.5109 27.4708 34.9082L31.7136 30.4082C32.2818 29.8053 33.2032 29.8053 33.7714 30.4082C34.3398 31.0109 34.3398 31.9883 33.7716 32.591L30.5578 35.9996L33.7716 39.4082ZM37.7136 32.591C37.1452 31.9883 37.1452 31.011 37.7136 30.4082C38.2818 29.8055 39.2032 29.8055 39.7716 30.4082L44.0142 34.9082C44.5824 35.511 44.5824 36.4883 44.0142 37.091L39.7716 41.591C39.2032 42.1938 38.2818 42.1938 37.7136 41.591C37.1452 40.9883 37.1452 40.0109 37.7136 39.4082L40.9272 35.9996L37.7136 32.591Z" fill="#EE8332"/>
<path fill-rule="evenodd" clip-rule="evenodd" d="M10.5 6C6.35787 6 3 9.35787 3 13.5V15H45V13.5C45 9.35787 41.6421 6 37.5 6H10.5ZM9 12C9.82842 12 10.5 11.3284 10.5 10.5C10.5 9.67158 9.82842 9 9 9C8.17158 9 7.5 9.67158 7.5 10.5C7.5 11.3284 8.17158 12 9 12ZM13.5 12C14.3284 12 15 11.3284 15 10.5C15 9.67158 14.3284 9 13.5 9C12.6716 9 12 9.67158 12 10.5C12 11.3284 12.6716 12 13.5 12ZM19.5 10.5C19.5 11.3284 18.8285 12 18 12C17.1715 12 16.5 11.3284 16.5 10.5C16.5 9.67158 17.1715 9 18 9C18.8285 9 19.5 9.67158 19.5 10.5Z" fill="#EE8332"/>
</g>
</svg>
