<svg width="48" height="48" viewBox="0 0 48 48" fill="none" xmlns="http://www.w3.org/2000/svg">
<path fill-rule="evenodd" clip-rule="evenodd" d="M10.5 6C8.51088 6 6.60322 6.79018 5.1967 8.1967C3.79018 9.60322 3 11.5109 3 13.5V34.5C3 36.4891 3.79018 38.3968 5.1967 39.8033C6.60322 41.2098 8.51088 42 10.5 42H24C24.3978 42 24.7794 41.842 25.0607 41.5607C25.342 41.2794 25.5 40.8978 25.5 40.5C25.5 40.1022 25.342 39.7206 25.0607 39.4393C24.7794 39.158 24.3978 39 24 39H10.5C9.30653 39 8.16193 38.5259 7.31802 37.682C6.47411 36.8381 6 35.6935 6 34.5V18H42V25.5C42 25.8978 42.158 26.2794 42.4393 26.5607C42.7206 26.842 43.1022 27 43.5 27C43.8978 27 44.2794 26.842 44.5607 26.5607C44.842 26.2794 45 25.8978 45 25.5V13.5C45 11.5109 44.2098 9.60322 42.8033 8.1967C41.3968 6.79018 39.4891 6 37.5 6H10.5ZM10.5 13.5C10.8978 13.5 11.2794 13.342 11.5607 13.0607C11.842 12.7794 12 12.3978 12 12C12 11.6022 11.842 11.2206 11.5607 10.9393C11.2794 10.658 10.8978 10.5 10.5 10.5C10.1022 10.5 9.72064 10.658 9.43934 10.9393C9.15804 11.2206 9 11.6022 9 12C9 12.3978 9.15804 12.7794 9.43934 13.0607C9.72064 13.342 10.1022 13.5 10.5 13.5ZM15 13.5C15.3978 13.5 15.7794 13.342 16.0607 13.0607C16.342 12.7794 16.5 12.3978 16.5 12C16.5 11.6022 16.342 11.2206 16.0607 10.9393C15.7794 10.658 15.3978 10.5 15 10.5C14.6022 10.5 14.2206 10.658 13.9393 10.9393C13.658 11.2206 13.5 11.6022 13.5 12C13.5 12.3978 13.658 12.7794 13.9393 13.0607C14.2206 13.342 14.6022 13.5 15 13.5ZM21 12C21 12.3978 20.842 12.7794 20.5607 13.0607C20.2794 13.342 19.8978 13.5 19.5 13.5C19.1022 13.5 18.7206 13.342 18.4393 13.0607C18.158 12.7794 18 12.3978 18 12C18 11.6022 18.158 11.2206 18.4393 10.9393C18.7206 10.658 19.1022 10.5 19.5 10.5C19.8978 10.5 20.2794 10.658 20.5607 10.9393C20.842 11.2206 21 11.6022 21 12Z" fill="#fff"/>
<path fill-rule="evenodd" clip-rule="evenodd" d="M36.408 30.8445C33.0135 29.874 29.874 33.0135 30.8445 36.408L32.2035 41.163C33.1455 44.4615 37.2855 45.534 39.711 43.1085L39.9105 42.9105L41.742 44.742C42.0233 45.0235 42.4048 45.1817 42.8027 45.1818C43.2006 45.1819 43.5823 45.024 43.8638 44.7428C44.1452 44.4615 44.3034 44.0799 44.3036 43.682C44.3037 43.2841 44.1458 42.9025 43.8645 42.621L42.0315 40.788L43.1085 39.7125C45.534 37.2855 44.4615 33.1455 41.1615 32.2035L36.4065 30.8445H36.408ZM36 22.5C36 22.1022 35.842 21.7206 35.5607 21.4393C35.2794 21.158 34.8978 21 34.5 21C34.1022 21 33.7206 21.158 33.4393 21.4393C33.158 21.7206 33 22.1022 33 22.5V25.5C33 25.8978 33.158 26.2794 33.4393 26.5607C33.7206 26.842 34.1022 27 34.5 27C34.8978 27 35.2794 26.842 35.5607 26.5607C35.842 26.2794 36 25.8978 36 25.5V22.5ZM23.5605 22.9395C23.8418 22.6583 24.2233 22.5003 24.621 22.5003C25.0187 22.5003 25.4002 22.6583 25.6815 22.9395L27.804 25.0605C28.0853 25.342 28.2432 25.7236 28.2431 26.1215C28.2429 26.5194 28.0847 26.901 27.8032 27.1823C27.5218 27.4635 27.1401 27.6214 26.7422 27.6213C26.3443 27.6212 25.9628 27.463 25.6815 27.1815L23.5605 25.0605C23.2793 24.7792 23.1213 24.3977 23.1213 24C23.1213 23.6023 23.2793 23.2208 23.5605 22.9395ZM19.5 33C19.5 32.6022 19.658 32.2206 19.9393 31.9393C20.2206 31.658 20.6022 31.5 21 31.5H24C24.3978 31.5 24.7794 31.658 25.0607 31.9393C25.342 32.2206 25.5 32.6022 25.5 33C25.5 33.3978 25.342 33.7794 25.0607 34.0607C24.7794 34.342 24.3978 34.5 24 34.5H21C20.6022 34.5 20.2206 34.342 19.9393 34.0607C19.658 33.7794 19.5 33.3978 19.5 33Z" fill="#fff"/>
</svg>
