<svg width="48" height="48" viewBox="0 0 48 48" fill="none" xmlns="http://www.w3.org/2000/svg">
<path d="M45.8959 19.5783C45.3255 18.8237 44.7855 18.1112 44.5849 17.4888C44.3666 16.8126 44.3842 15.8815 44.4034 14.8949C44.4341 13.2876 44.4683 11.4655 43.4239 10.0139C42.36 8.54163 40.6155 8.00988 39.0758 7.54113C38.1499 7.2595 37.2761 6.99362 36.7223 6.58712C36.1823 6.19112 35.6681 5.44187 35.124 4.64875C34.2041 3.30812 33.1624 1.78938 31.4224 1.219C30.9746 1.072 30.5066 1.00038 29.9925 1.00038C28.7996 1.00038 27.6532 1.4005 26.544 1.78825C25.6072 2.11413 24.7237 2.42275 24 2.42275C23.2759 2.42275 22.3924 2.11375 21.4564 1.78713C20.3482 1.40013 19.2026 1 18.0112 1C17.4975 1 17.0291 1.07088 16.5791 1.21788C14.8369 1.78863 13.7944 3.30812 12.8745 4.64875C12.33 5.44187 11.8155 6.1915 11.2744 6.58862C10.7216 6.994 9.84788 7.25988 8.92275 7.54188C7.3845 8.01063 5.6415 8.54163 4.57913 10.0105C3.53025 11.4651 3.56475 13.288 3.59587 14.8964C3.61462 15.8822 3.633 16.813 3.41513 17.4891C3.2145 18.1112 2.67488 18.8241 2.10413 19.5779C1.1175 20.8821 0 22.3589 0 24.226C0 26.0924 1.11825 27.5699 2.1045 28.8741C2.67525 29.6286 3.2145 30.3411 3.41513 30.9625C3.63188 31.6367 3.61387 32.5675 3.59512 33.5526C3.56437 35.1614 3.5295 36.9846 4.57762 38.4385C5.63925 39.91 7.38375 40.4403 8.92237 40.9082C9.84787 41.1895 10.7224 41.4554 11.2744 41.8611C11.8151 42.2582 12.3293 43.0079 12.8741 43.8014C13.794 45.1424 14.8365 46.6634 16.5769 47.2326C17.0276 47.3804 17.4956 47.4516 18.0079 47.4516C19.1981 47.4516 20.3438 47.0519 21.4519 46.6645C22.389 46.3375 23.2736 46.0292 24 46.0292C24.7237 46.0292 25.6065 46.3368 26.5414 46.6634C27.6502 47.0504 28.7977 47.4516 29.9917 47.4516C30.5059 47.4516 30.9746 47.38 31.4235 47.2311C33.1609 46.6626 34.2034 45.1424 35.1236 43.8006C35.6678 43.0079 36.1819 42.2583 36.7234 41.8596C37.2743 41.4565 38.1488 41.191 39.0746 40.9097C40.614 40.4417 42.3592 39.9111 43.4212 38.4408C44.4675 36.9854 44.433 35.1644 44.4026 33.5571C44.3831 32.5705 44.3662 31.639 44.5845 30.9621C44.7844 30.3426 45.3236 29.6305 45.8929 28.8767C46.8817 27.5729 48 26.0935 48 24.226C48 22.3593 46.8825 20.8821 45.8959 19.5783ZM36.1016 15.814L37.3474 15.3535L37.6751 14.0676C37.7299 13.8539 37.8844 13.8212 38.0198 13.9941L38.8418 15.0359L40.1663 14.9493C40.3871 14.9343 40.4655 15.0711 40.3436 15.2541L39.606 16.3589L40.0973 17.5923C40.1782 17.7963 40.0729 17.9132 39.8617 17.854L38.583 17.4948L37.5615 18.3438C37.3927 18.4836 37.2484 18.4202 37.2397 18.2001L37.1865 16.8734L36.0645 16.1642C35.88 16.0476 35.8961 15.8905 36.1016 15.814ZM30.0919 10.7759L30.9405 9.75362L30.5816 8.476C30.5224 8.26375 30.6394 8.15838 30.8434 8.23975L32.0756 8.73138L33.18 7.99375C33.363 7.87038 33.5002 7.94987 33.4849 8.16925L33.399 9.4945L34.4404 10.3173C34.6125 10.4534 34.5795 10.6075 34.368 10.6619L33.0806 10.99L32.6198 12.2358C32.544 12.4413 32.3873 12.4589 32.2691 12.2729L31.56 11.1497L30.2336 11.0972C30.0154 11.089 29.9516 10.9446 30.0919 10.7759ZM21.7511 6.84587L23.0644 6.65462L23.6516 5.46362C23.7495 5.26562 23.9066 5.26562 24.0037 5.46362L24.5918 6.65462L25.9046 6.84587C26.1225 6.877 26.1709 7.027 26.0138 7.18075L25.0635 8.1085L25.2878 9.41763C25.3252 9.63438 25.1977 9.72738 25.0024 9.625L23.8279 9.007L22.653 9.625C22.458 9.72738 22.3305 9.63438 22.3676 9.41763L22.5922 8.1085L21.642 7.18075C21.4845 7.02738 21.5336 6.877 21.7511 6.84587ZM13.1801 10.1856L14.2219 9.364L14.1353 8.03875C14.1206 7.81825 14.2571 7.7395 14.4401 7.8625L15.5441 8.60013L16.7771 8.1085C16.9819 8.02675 17.0989 8.1325 17.0392 8.34438L16.6796 9.62238L17.5286 10.6442C17.6689 10.8134 17.6047 10.9578 17.385 10.9668L16.0586 11.0189L15.3502 12.1416C15.2329 12.3276 15.0761 12.3108 14.9993 12.1045L14.5391 10.8584L13.2529 10.5306C13.0402 10.4766 13.008 10.3221 13.1801 10.1856ZM7.35712 14.722L8.682 14.8079L9.50362 13.7657C9.64013 13.5933 9.79425 13.6263 9.84863 13.8389L10.176 15.1255L11.4221 15.5864C11.6284 15.6625 11.6452 15.8193 11.4589 15.9374L10.3365 16.6461L10.2844 17.9725C10.2758 18.1926 10.1314 18.2568 9.96225 18.1165L8.94075 17.2668L7.6635 17.6264C7.45125 17.686 7.3455 17.569 7.42688 17.3643L7.9185 16.1316L7.18087 15.0273C7.05788 14.8435 7.137 14.7074 7.35712 14.722ZM6.03338 26.4591L5.84288 25.1451L4.65225 24.5579C4.45425 24.4608 4.45425 24.3032 4.65225 24.2057L5.84288 23.6185L6.03338 22.3045C6.06525 22.0866 6.21562 22.0375 6.369 22.1954L7.29562 23.146L8.60437 22.9214C8.82113 22.8839 8.91412 23.0118 8.81175 23.2071L8.19413 24.382L8.81213 25.5573C8.91413 25.7519 8.82113 25.8794 8.60437 25.8426L7.29562 25.6184L6.369 26.5679C6.21525 26.7254 6.06525 26.6766 6.03338 26.4591ZM11.2905 33.2117L10.0451 33.6722L9.71737 34.9589C9.663 35.1722 9.50887 35.2052 9.37275 35.0324L8.55112 33.9906L7.22587 34.0772C7.00575 34.0919 6.927 33.955 7.05 33.7724L7.78763 32.6676L7.29562 31.435C7.21425 31.2299 7.32 31.1129 7.5315 31.1729L8.80912 31.5317L9.831 30.6828C9.99975 30.5425 10.1445 30.6059 10.1528 30.8264L10.2056 32.1527L11.3284 32.8619C11.514 32.9785 11.4967 33.1352 11.2905 33.2117ZM17.3014 38.2503L16.4528 39.2729L16.8116 40.5497C16.8713 40.7616 16.7542 40.8674 16.5499 40.7864L15.3173 40.2944L14.2133 41.032C14.0303 41.1558 13.8934 41.0766 13.9084 40.8561L13.9946 39.5312L12.9525 38.7093C12.78 38.5728 12.813 38.4179 13.026 38.3639L14.3119 38.0361L14.7728 36.7904C14.8489 36.5845 15.0052 36.5669 15.123 36.7536L15.8325 37.8753L17.1585 37.9277C17.3775 37.9371 17.4416 38.0811 17.3014 38.2503ZM25.6418 42.1806L24.3289 42.3711L23.7416 43.5629C23.6449 43.7609 23.4862 43.7605 23.3899 43.5629L22.8026 42.3719L21.489 42.1806C21.2711 42.1484 21.2224 41.9984 21.3799 41.845L22.3294 40.9173L22.1051 39.6081C22.0684 39.3921 22.1955 39.2984 22.3909 39.4007L23.5661 40.0184L24.7406 39.4C24.9356 39.2984 25.0627 39.3914 25.0256 39.6081L24.8021 40.9173L25.7505 41.8442C25.9088 41.9991 25.8596 42.1484 25.6418 42.1806ZM34.212 38.8409L33.1714 39.6621L33.2576 40.9874C33.273 41.2082 33.1354 41.287 32.9528 41.1644L31.8484 40.4264L30.6157 40.918C30.4106 40.9994 30.294 40.8932 30.3536 40.6821L30.7125 39.4041L29.8635 38.3822C29.7236 38.2135 29.7874 38.0684 30.0071 38.0609L31.3342 38.0072L32.0419 36.8837C32.1592 36.6989 32.3164 36.7161 32.3929 36.922L32.8538 38.1677L34.1393 38.4959C34.3526 38.5499 34.3849 38.7036 34.212 38.8409ZM24 37.1687C16.8529 37.1687 11.0599 31.3746 11.0599 24.226C11.0599 17.0774 16.8529 11.2821 24 11.2821C31.1464 11.2821 36.9401 17.077 36.9401 24.226C36.9401 31.3746 31.1464 37.1687 24 37.1687ZM40.0373 34.3041L38.7116 34.2179L37.89 35.26C37.7535 35.4321 37.5994 35.3987 37.5454 35.1869L37.2173 33.9002L35.9719 33.4394C35.766 33.3636 35.7484 33.2069 35.9344 33.0887L37.0571 32.3796L37.1092 31.0525C37.1179 30.8339 37.2626 30.7694 37.4306 30.9096L38.4533 31.7586L39.7298 31.3997C39.942 31.3397 40.0481 31.4575 39.9664 31.6619L39.4755 32.8945L40.2124 33.9985C40.3361 34.1826 40.2562 34.3187 40.0373 34.3041ZM42.7421 24.8204L41.5519 25.408L41.3599 26.7224C41.328 26.9395 41.1776 26.9879 41.025 26.8311L40.0969 25.8805L38.7881 26.1047C38.5714 26.1423 38.4784 26.0155 38.5804 25.8197L39.198 24.6441L38.58 23.4685C38.4784 23.2746 38.5714 23.1471 38.7881 23.1839L40.0969 23.4078L41.0235 22.4586C41.1772 22.3004 41.3284 22.3499 41.3595 22.567L41.5508 23.8806L42.7414 24.4683C42.9401 24.5654 42.9394 24.7232 42.7421 24.8204Z" fill="#EE8332"/>
<path fill-rule="evenodd" clip-rule="evenodd" d="M24 35.2256C30.0751 35.2256 35 30.3007 35 24.2256C35 18.1505 30.0751 13.2256 24 13.2256C17.9249 13.2256 13 18.1505 13 24.2256C13 30.3007 17.9249 35.2256 24 35.2256ZM16.56 23.0276C16.744 22.7676 17.01 22.6376 17.358 22.6376C17.514 22.6376 17.672 22.6656 17.832 22.7216C17.996 22.7776 18.158 22.8436 18.318 22.9196L18.612 22.1816C18.416 22.0896 18.21 22.0176 17.994 21.9656C17.782 21.9096 17.57 21.8816 17.358 21.8816C16.926 21.8816 16.56 21.9756 16.26 22.1636C15.964 22.3516 15.738 22.6116 15.582 22.9436C15.426 23.2756 15.348 23.6576 15.348 24.0896C15.348 24.5296 15.416 24.9156 15.552 25.2476C15.688 25.5756 15.898 25.8316 16.182 26.0156C16.47 26.1956 16.834 26.2856 17.274 26.2856C17.502 26.2856 17.708 26.2676 17.892 26.2316C18.076 26.1956 18.262 26.1396 18.45 26.0636V25.3016C18.246 25.3736 18.056 25.4296 17.88 25.4696C17.708 25.5096 17.534 25.5296 17.358 25.5296C16.982 25.5296 16.708 25.4056 16.536 25.1576C16.368 24.9056 16.284 24.5516 16.284 24.0956C16.284 23.6436 16.376 23.2876 16.56 23.0276ZM21.6703 25.2056L21.9823 26.2256H22.9603L21.4423 21.9236H20.3323L18.8203 26.2256H19.7983L20.1103 25.2056H21.6703ZM21.0643 23.1896C21.0963 23.2936 21.1223 23.3796 21.1423 23.4476L21.4543 24.4436H20.3383L20.6443 23.4476C20.6603 23.4036 20.6823 23.3296 20.7103 23.2256C20.7423 23.1176 20.7743 23.0056 20.8063 22.8896C20.8423 22.7696 20.8703 22.6696 20.8903 22.5896C20.9103 22.6696 20.9363 22.7636 20.9683 22.8716C21.0003 22.9796 21.0323 23.0856 21.0643 23.1896ZM25.6149 25.9496C25.8909 25.7216 26.0289 25.4176 26.0289 25.0376C26.0289 24.8136 25.9869 24.6256 25.9029 24.4736C25.8189 24.3216 25.6989 24.1896 25.5429 24.0776C25.3909 23.9656 25.2049 23.8576 24.9849 23.7536C24.7169 23.6256 24.5149 23.5176 24.3789 23.4296C24.2429 23.3416 24.1749 23.2216 24.1749 23.0696C24.1749 22.9416 24.2209 22.8376 24.3129 22.7576C24.4049 22.6776 24.5369 22.6376 24.7089 22.6376C24.8729 22.6376 25.0329 22.6596 25.1889 22.7036C25.3449 22.7476 25.5209 22.8096 25.7169 22.8896L26.0109 22.1816C25.7909 22.0856 25.5789 22.0116 25.3749 21.9596C25.1749 21.9076 24.9629 21.8816 24.7389 21.8816C24.2909 21.8816 23.9369 21.9896 23.6769 22.2056C23.4169 22.4176 23.2869 22.7156 23.2869 23.0996C23.2869 23.2956 23.3209 23.4636 23.3889 23.6036C23.4569 23.7436 23.5429 23.8636 23.6469 23.9636C23.7549 24.0596 23.8669 24.1416 23.9829 24.2096C24.0989 24.2736 24.2069 24.3296 24.3069 24.3776C24.4669 24.4536 24.6089 24.5256 24.7329 24.5936C24.8569 24.6576 24.9549 24.7276 25.0269 24.8036C25.1029 24.8796 25.1409 24.9716 25.1409 25.0796C25.1409 25.2116 25.0929 25.3216 24.9969 25.4096C24.9049 25.4936 24.7469 25.5356 24.5229 25.5356C24.3069 25.5356 24.0889 25.4996 23.8689 25.4276C23.6529 25.3516 23.4429 25.2696 23.2389 25.1816V26.0276C23.5949 26.1996 23.9989 26.2856 24.4509 26.2856C24.9549 26.2856 25.3429 26.1736 25.6149 25.9496ZM26.8076 26.2256H29.2736V25.4756H27.7136V24.3716H29.1656V23.6276H27.7136V22.6856H29.2736V21.9416H26.8076V26.2256ZM32.277 25.9496C32.553 25.7216 32.691 25.4176 32.691 25.0376C32.691 24.8136 32.649 24.6256 32.565 24.4736C32.481 24.3216 32.361 24.1896 32.205 24.0776C32.053 23.9656 31.867 23.8576 31.647 23.7536C31.379 23.6256 31.177 23.5176 31.041 23.4296C30.905 23.3416 30.837 23.2216 30.837 23.0696C30.837 22.9416 30.883 22.8376 30.975 22.7576C31.067 22.6776 31.199 22.6376 31.371 22.6376C31.535 22.6376 31.695 22.6596 31.851 22.7036C32.007 22.7476 32.183 22.8096 32.379 22.8896L32.673 22.1816C32.453 22.0856 32.241 22.0116 32.037 21.9596C31.837 21.9076 31.625 21.8816 31.401 21.8816C30.953 21.8816 30.599 21.9896 30.339 22.2056C30.079 22.4176 29.949 22.7156 29.949 23.0996C29.949 23.2956 29.983 23.4636 30.051 23.6036C30.119 23.7436 30.205 23.8636 30.309 23.9636C30.417 24.0596 30.529 24.1416 30.645 24.2096C30.761 24.2736 30.869 24.3296 30.969 24.3776C31.129 24.4536 31.271 24.5256 31.395 24.5936C31.519 24.6576 31.617 24.7276 31.689 24.8036C31.765 24.8796 31.803 24.9716 31.803 25.0796C31.803 25.2116 31.755 25.3216 31.659 25.4096C31.567 25.4936 31.409 25.5356 31.185 25.5356C30.969 25.5356 30.751 25.4996 30.531 25.4276C30.315 25.3516 30.105 25.2696 29.901 25.1816V26.0276C30.257 26.1996 30.661 26.2856 31.113 26.2856C31.617 26.2856 32.005 26.1736 32.277 25.9496Z" fill="#EE8332"/>
</svg>
