<svg width="48" height="48" viewBox="0 0 48 48" fill="none" xmlns="http://www.w3.org/2000/svg">
<path d="M30.0073 14.7617H31.1067C34.3145 14.7617 34.2405 15.9309 34.2403 17.7009C34.2403 17.7009 34.2402 30.3352 34.2403 31.1775C34.2405 32.3534 34.1046 32.9389 33.9361 33.2893C33.6309 33.9241 32.9185 34.0427 32.0196 34.1316C31.3197 34.2008 30.7134 34.0217 30.7134 34.0217C30.042 33.7288 30.2515 32.2395 30.2515 32.2395C30.2515 32.2395 30.8396 32.3697 31.2139 32.0768C31.5881 31.7839 31.6298 31.5608 31.8444 30.9911C32.0302 30.4976 31.9856 17.8135 31.9856 17.8135C31.9856 17.0731 31.3832 16.4707 30.6428 16.4707H29.7876" fill="#EE8332"/>
<path d="M23.4258 15.8333V16.4707H29.7876L30.2515 14.7617H24.0016C23.3801 14.7896 23.4258 15.8333 23.4258 15.8333ZM29.3726 29.3857H17.9475C16.5004 29.3857 16.6047 28.732 16.6047 28.0429V23.252C15.9046 23.2717 15.3023 23.2214 14.8958 23.1708V29.1172C14.8958 30.7999 15.2376 32.3756 17.9475 32.1689H30.2515L30.2271 31.2168C30.2271 31.2168 30.2515 29.7737 29.3726 29.3857ZM16.6047 21.6758V17.8135C16.6047 17.0731 17.2071 16.4707 17.9475 16.4707H21.571C21.5709 15.4303 21.6375 14.8201 21.2652 14.7617H17.9475C15.3936 14.7617 14.8958 15.8577 14.8958 17.8135V21.5217C15.5216 21.6428 16.0895 21.6889 16.6047 21.6758Z" fill="#EE8332"/>
<path d="M21.4483 17.7864C21.4483 17.7864 20.6601 21.5724 16.6047 21.6758V23.252C19.2196 23.1787 23.1975 22.1295 23.4258 16.4707H21.571C21.5652 16.839 21.5294 17.2741 21.4483 17.7864Z" fill="#EE8332"/>
<path d="M26.7119 21.6777C26.7119 22.1335 26.893 22.5707 27.2153 22.893C27.5376 23.2154 27.9748 23.3964 28.4306 23.3964C28.8865 23.3964 29.3236 23.2154 29.646 22.893C29.9683 22.5707 30.1494 22.1335 30.1494 21.6777C30.1494 21.2219 29.9683 20.7847 29.646 20.4624C29.3236 20.1401 28.8865 19.959 28.4306 19.959C27.9748 19.959 27.5376 20.1401 27.2153 20.4624C26.893 20.7847 26.7119 21.2219 26.7119 21.6777Z" fill="#EE8332"/>
<path fill-rule="evenodd" clip-rule="evenodd" d="M3 24C3 12.402 12.402 3 24 3C35.598 3 45 12.402 45 24C45 35.598 35.598 45 24 45C12.402 45 3 35.598 3 24ZM22.5 6.0616V7.5C22.5 8.32842 23.1716 9 24 9C24.8284 9 25.5 8.32842 25.5 7.5V6.0616C34.2447 6.78303 41.217 13.7553 41.9384 22.5H40.5C39.6716 22.5 39 23.1716 39 24C39 24.8284 39.6716 25.5 40.5 25.5H41.9384C41.217 34.2447 34.2447 41.217 25.5 41.9384V40.5C25.5 39.6716 24.8284 39 24 39C23.1716 39 22.5 39.6716 22.5 40.5V41.9384C13.7553 41.217 6.78303 34.2447 6.0616 25.5H7.5C8.32842 25.5 9 24.8284 9 24C9 23.1716 8.32842 22.5 7.5 22.5H6.0616C6.78303 13.7553 13.7553 6.78303 22.5 6.0616Z" fill="#EE8332"/>
</svg>
