<svg width="31" height="30" viewBox="0 0 31 30" fill="none" xmlns="http://www.w3.org/2000/svg">
<path d="M21.9163 3.75H26.9163C27.6066 3.75 28.1663 4.30965 28.1663 5V25C28.1663 25.6904 27.6066 26.25 26.9163 26.25H4.41626C3.72591 26.25 3.16626 25.6904 3.16626 25V5C3.16626 4.30965 3.72591 3.75 4.41626 3.75H9.41626V1.25H11.9163V3.75H19.4163V1.25H21.9163V3.75ZM5.66626 11.25V23.75H25.6663V11.25H5.66626ZM8.16626 13.75H10.6663V16.25H8.16626V13.75ZM14.4163 13.75H16.9163V16.25H14.4163V13.75ZM20.6663 13.75H23.1663V16.25H20.6663V13.75Z" />
</svg>
