<svg width="30" height="30" viewBox="0 0 30 30" fill="none" xmlns="http://www.w3.org/2000/svg">
<path d="M7.57045 10.3756C7.64994 10.2482 7.73261 10.1229 7.81836 10H22.1816C22.2674 10.1229 22.35 10.2482 22.4295 10.3756L24.9551 8.91746L26.2051 11.0825L23.439 12.6795C23.6418 13.4185 23.75 14.1966 23.75 15V16.25H27.5V18.75H23.75C23.75 19.9417 23.5117 21.0779 23.0802 22.1134L26.2051 23.9175L24.9551 26.0825L21.7979 24.2596C20.4416 25.9309 18.4816 27.0921 16.25 27.4114V17.5H13.75V27.4114C11.5183 27.0921 9.55831 25.9309 8.20214 24.2596L5.04488 26.0825L3.79488 23.9175L6.91975 22.1134C6.48826 21.0779 6.25 19.9417 6.25 18.75H2.5V16.25H6.25V15C6.25 14.1966 6.35826 13.4185 6.561 12.6795L3.79488 11.0825L5.04488 8.91746L7.57045 10.3756ZM10 7.5C10 4.73857 12.2386 2.5 15 2.5C17.7614 2.5 20 4.73857 20 7.5H10Z" />
</svg>
