<svg width="31" height="30" viewBox="0 0 31 30" fill="none" xmlns="http://www.w3.org/2000/svg">
<path d="M13.1661 24.685V20.5C13.1661 18.8967 14.4096 17.6345 16.2495 16.9151C15.095 16.485 13.8455 16.25 12.5411 16.25C10.1788 16.25 7.99654 17.021 6.23221 18.325C7.33113 21.443 9.93205 23.8525 13.1661 24.685ZM24.2654 20.1074C23.7739 19.4408 22.1296 18.75 20.0411 18.75C17.5335 18.75 15.6661 19.7459 15.6661 20.5V25C19.323 25 22.5215 23.037 24.2654 20.1074ZM12.6036 14.375C14.1569 14.375 15.4161 13.1158 15.4161 11.5625C15.4161 10.0092 14.1569 8.75 12.6036 8.75C11.0503 8.75 9.79114 10.0092 9.79114 11.5625C9.79114 13.1158 11.0503 14.375 12.6036 14.375ZM20.0411 15.625C21.4219 15.625 22.5411 14.5057 22.5411 13.125C22.5411 11.7443 21.4219 10.625 20.0411 10.625C18.6604 10.625 17.5411 11.7443 17.5411 13.125C17.5411 14.5057 18.6604 15.625 20.0411 15.625ZM15.6661 27.5C8.76258 27.5 3.16614 21.9035 3.16614 15C3.16614 8.09644 8.76258 2.5 15.6661 2.5C22.5696 2.5 28.1661 8.09644 28.1661 15C28.1661 21.9035 22.5696 27.5 15.6661 27.5Z"/>
</svg>