<svg width="30" height="30" viewBox="0 0 30 30" fill="none" xmlns="http://www.w3.org/2000/svg">
<path d="M8.15923 18.1422C8.15923 19.4961 7.0533 20.602 5.69948 20.602C4.34567 20.602 3.23975 19.4961 3.23975 18.1422C3.23975 16.7885 4.34567 15.6825 5.69948 15.6825H8.15923V18.1422ZM9.39865 18.1422C9.39865 16.7885 10.5046 15.6825 11.8584 15.6825C13.2122 15.6825 14.3181 16.7885 14.3181 18.1422V24.3011C14.3181 25.655 13.2122 26.7609 11.8584 26.7609C10.5046 26.7609 9.39865 25.655 9.39865 24.3011V18.1422ZM11.8584 8.15923C10.5046 8.15923 9.39865 7.0533 9.39865 5.69948C9.39865 4.34567 10.5046 3.23975 11.8584 3.23975C13.2122 3.23975 14.3181 4.34567 14.3181 5.69948V8.15923H11.8584ZM11.8584 9.39865C13.2122 9.39865 14.3181 10.5046 14.3181 11.8584C14.3181 13.2122 13.2122 14.3181 11.8584 14.3181H5.69948C4.34567 14.3181 3.23975 13.2122 3.23975 11.8584C3.23975 10.5046 4.34567 9.39865 5.69948 9.39865H11.8584ZM21.8415 11.8584C21.8415 10.5046 22.9474 9.39865 24.3011 9.39865C25.655 9.39865 26.7609 10.5046 26.7609 11.8584C26.7609 13.2122 25.655 14.3181 24.3011 14.3181H21.8415V11.8584ZM20.602 11.8584C20.602 13.2122 19.4961 14.3181 18.1422 14.3181C16.7885 14.3181 15.6825 13.2122 15.6825 11.8584V5.69948C15.6825 4.34567 16.7885 3.23975 18.1422 3.23975C19.4961 3.23975 20.602 4.34567 20.602 5.69948V11.8584ZM18.1422 21.8415C19.4961 21.8415 20.602 22.9474 20.602 24.3011C20.602 25.655 19.4961 26.7609 18.1422 26.7609C16.7885 26.7609 15.6825 25.655 15.6825 24.3011V21.8415H18.1422ZM18.1422 20.602C16.7885 20.602 15.6825 19.4961 15.6825 18.1422C15.6825 16.7885 16.7885 15.6825 18.1422 15.6825H24.3011C25.655 15.6825 26.7609 16.7885 26.7609 18.1422C26.7609 19.4961 25.655 20.602 24.3011 20.602H18.1422Z" />
</svg>
