<svg width="31" height="30" viewBox="0 0 31 30" fill="none" xmlns="http://www.w3.org/2000/svg">
<path d="M23.5525 17.1392C24.1761 17.1392 24.675 16.6091 24.675 16.0168C24.675 15.3931 24.1761 14.8944 23.5525 14.8944C22.929 14.8944 22.4301 15.3931 22.4301 16.0168C22.4301 16.6404 22.929 17.1392 23.5525 17.1392ZM18.0205 17.1392C18.644 17.1392 19.1429 16.6091 19.1429 16.0168C19.1429 15.3931 18.644 14.8944 18.0205 14.8944C17.3969 14.8944 16.898 15.3931 16.898 16.0168C16.898 16.6404 17.3969 17.1392 18.0205 17.1392ZM26.2296 23.4395C26.0761 23.5316 25.984 23.6852 26.0147 23.9002C26.0147 23.9616 26.0147 24.0231 26.0454 24.0845C26.1682 24.6067 26.4137 25.4363 26.4137 25.467C26.4137 25.5591 26.4445 25.6205 26.4445 25.682C26.4445 25.8356 26.3217 25.9585 26.1682 25.9585C26.1067 25.9585 26.0761 25.9277 26.0147 25.897L24.2035 24.8525C24.0806 24.7911 23.9271 24.7296 23.7736 24.7296C23.6816 24.7296 23.5895 24.7296 23.5281 24.7604C22.6685 25.0061 21.7782 25.129 20.8266 25.129C16.2524 25.129 12.5686 22.057 12.5686 18.2479C12.5686 14.4386 16.2524 11.3666 20.8266 11.3666C25.4007 11.3666 29.0846 14.4386 29.0846 18.2479C29.0846 20.306 27.9794 22.1799 26.2296 23.4395ZM21.1755 10.122C21.0596 10.1184 20.9434 10.1166 20.8266 10.1166C15.6082 10.1166 11.3186 13.692 11.3186 18.2479C11.3186 18.9399 11.4175 19.6093 11.6037 20.2469H11.4923C10.3846 20.2469 9.27688 20.0629 8.2615 19.787C8.1692 19.7563 8.07688 19.7563 7.98458 19.7563C7.79996 19.7563 7.61534 19.8176 7.46149 19.9096L5.27689 21.1667C5.21536 21.1975 5.15381 21.2281 5.09227 21.2281C4.90766 21.2281 4.75382 21.0749 4.75382 20.8909C4.75382 20.7989 4.78458 20.7375 4.81536 20.6455C4.84612 20.6149 5.12304 19.603 5.27689 18.9897C5.27689 18.9284 5.30766 18.8364 5.30766 18.7751C5.30766 18.5297 5.18458 18.3457 5.03073 18.2231C2.90767 16.7206 1.58459 14.4822 1.58459 11.9984C1.58459 7.42961 6.04612 3.75 11.523 3.75C16.228 3.75 20.1836 6.4607 21.1755 10.122ZM14.7332 10.6451C15.4492 10.6451 16.0161 10.0484 16.0161 9.36225C16.0161 8.64626 15.4492 8.07945 14.7332 8.07945C14.0172 8.07945 13.4505 8.64626 13.4505 9.36225C13.4505 10.0782 14.0172 10.6451 14.7332 10.6451ZM8.15893 10.6451C8.87492 10.6451 9.44173 10.0484 9.44173 9.36225C9.44173 8.64626 8.87492 8.07945 8.15893 8.07945C7.44296 8.07945 6.87613 8.64626 6.87613 9.36225C6.87613 10.0782 7.44296 10.6451 8.15893 10.6451Z" />
</svg>
